<svg width="20" height="20" viewBox="0 0 20 20" fill="none" xmlns="http://www.w3.org/2000/svg">
<g id="ic_add_to_home">
<g id="ic_add_to_home_2">
<path id="Vector" d="M5.83331 0.000244141H3.33332C2.44927 0.000244141 1.60142 0.351438 0.976306 0.976568C0.351188 1.6017 0 2.44955 0 3.33362L0 5.83365C0 6.71772 0.351188 7.56558 0.976306 8.19071C1.60142 8.81583 2.44927 9.16703 3.33332 9.16703H5.83331C6.71736 9.16703 7.5652 8.81583 8.19032 8.19071C8.81544 7.56558 9.16663 6.71772 9.16663 5.83365V3.33362C9.16663 2.44955 8.81544 1.6017 8.19032 0.976568C7.5652 0.351438 6.71736 0.000244141 5.83331 0.000244141V0.000244141ZM7.49997 5.83365C7.49997 6.27569 7.32437 6.69961 7.01181 7.01218C6.69925 7.32474 6.27533 7.50034 5.83331 7.50034H3.33332C2.89129 7.50034 2.46737 7.32474 2.15481 7.01218C1.84225 6.69961 1.66666 6.27569 1.66666 5.83365V3.33362C1.66666 2.89159 1.84225 2.46766 2.15481 2.15509C2.46737 1.84253 2.89129 1.66693 3.33332 1.66693H5.83331C6.27533 1.66693 6.69925 1.84253 7.01181 2.15509C7.32437 2.46766 7.49997 2.89159 7.49997 3.33362V5.83365Z" fill="#222222"/>
<path id="Vector_2" d="M5.83331 10.8335H3.33332C2.44927 10.8335 1.60142 11.1847 0.976306 11.8098C0.351188 12.435 0 13.2828 0 14.1669L0 16.6669C0 17.551 0.351188 18.3988 0.976306 19.024C1.60142 19.6491 2.44927 20.0003 3.33332 20.0003H5.83331C6.71736 20.0003 7.5652 19.6491 8.19032 19.024C8.81544 18.3988 9.16663 17.551 9.16663 16.6669V14.1669C9.16663 13.2828 8.81544 12.435 8.19032 11.8098C7.5652 11.1847 6.71736 10.8335 5.83331 10.8335ZM7.49997 16.6669C7.49997 17.1089 7.32437 17.5329 7.01181 17.8454C6.69925 18.158 6.27533 18.3336 5.83331 18.3336H3.33332C2.89129 18.3336 2.46737 18.158 2.15481 17.8454C1.84225 17.5329 1.66666 17.1089 1.66666 16.6669V14.1669C1.66666 13.7248 1.84225 13.3009 2.15481 12.9883C2.46737 12.6758 2.89129 12.5002 3.33332 12.5002H5.83331C6.27533 12.5002 6.69925 12.6758 7.01181 12.9883C7.32437 13.3009 7.49997 13.7248 7.49997 14.1669V16.6669Z" fill="#222222"/>
<path id="Vector_3" d="M16.6668 10.8335H14.1668C13.2828 10.8335 12.4349 11.1847 11.8098 11.8098C11.1847 12.435 10.8335 13.2828 10.8335 14.1669V16.6669C10.8335 17.551 11.1847 18.3988 11.8098 19.024C12.4349 19.6491 13.2828 20.0003 14.1668 20.0003H16.6668C17.5508 20.0003 18.3987 19.6491 19.0238 19.024C19.6489 18.3988 20.0001 17.551 20.0001 16.6669V14.1669C20.0001 13.2828 19.6489 12.435 19.0238 11.8098C18.3987 11.1847 17.5508 10.8335 16.6668 10.8335ZM18.3335 16.6669C18.3335 17.1089 18.1579 17.5329 17.8453 17.8454C17.5327 18.158 17.1088 18.3336 16.6668 18.3336H14.1668C13.7248 18.3336 13.3009 18.158 12.9883 17.8454C12.6757 17.5329 12.5002 17.1089 12.5002 16.6669V14.1669C12.5002 13.7248 12.6757 13.3009 12.9883 12.9883C13.3009 12.6758 13.7248 12.5002 14.1668 12.5002H16.6668C17.1088 12.5002 17.5327 12.6758 17.8453 12.9883C18.1579 13.3009 18.3335 13.7248 18.3335 14.1669V16.6669Z" fill="#222222"/>
<path id="Vector_4" d="M11.6668 5.83381H14.1668V8.33384C14.1668 8.55485 14.2546 8.76682 14.4109 8.9231C14.5672 9.07938 14.7791 9.16718 15.0001 9.16718C15.2212 9.16718 15.4331 9.07938 15.5894 8.9231C15.7457 8.76682 15.8335 8.55485 15.8335 8.33384V5.83381H18.3335C18.5545 5.83381 18.7664 5.74601 18.9227 5.58972C19.079 5.43344 19.1668 5.22148 19.1668 5.00046C19.1668 4.77944 19.079 4.56748 18.9227 4.4112C18.7664 4.25492 18.5545 4.16712 18.3335 4.16712H15.8335V1.66708C15.8335 1.44607 15.7457 1.2341 15.5894 1.07782C15.4331 0.921539 15.2212 0.83374 15.0001 0.83374C14.7791 0.83374 14.5672 0.921539 14.4109 1.07782C14.2546 1.2341 14.1668 1.44607 14.1668 1.66708V4.16712H11.6668C11.4458 4.16712 11.2339 4.25492 11.0776 4.4112C10.9213 4.56748 10.8335 4.77944 10.8335 5.00046C10.8335 5.22148 10.9213 5.43344 11.0776 5.58972C11.2339 5.74601 11.4458 5.83381 11.6668 5.83381Z" fill="#222222"/>
</g>
</g>
</svg>
