<svg width="current" height="current" viewBox="0 0 4 20" fill="none" xmlns="http://www.w3.org/2000/svg">
<g id="active=default">
<path id="Vector" d="M2 4.00001C3.10457 4.00001 4 3.10458 4 2C4 0.895432 3.10457 0 2 0C0.89543 0 0 0.895432 0 2C0 3.10458 0.89543 4.00001 2 4.00001Z" fill="current"/>
<path id="Vector_2" d="M2 12C3.10457 12 4 11.1046 4 10C4 8.89543 3.10457 8 2 8C0.89543 8 0 8.89543 0 10C0 11.1046 0.89543 12 2 12Z" fill="current"/>
<path id="Vector_3" d="M2 20C3.10457 20 4 19.1046 4 18C4 16.8954 3.10457 16 2 16C0.89543 16 0 16.8954 0 18C0 19.1046 0.89543 20 2 20Z" fill="current"/>
</g>
</svg>
