<svg width="current" height="current" viewBox="0 0 20 20" fill="none" xmlns="http://www.w3.org/2000/svg">
<g id="ic_comment">
<path id="Vector" d="M10.6965 0.0243263C9.268 -0.0754954 7.83474 0.132656 6.49367 0.634697C5.15261 1.13674 3.93501 1.92096 2.92325 2.93431C1.91149 3.94765 1.12918 5.16649 0.629233 6.50835C0.129288 7.85021 -0.0766239 9.2838 0.0254261 10.7121C0.392071 16.0069 5.06847 20 10.9023 20H15.8328C16.9374 19.9987 17.9964 19.5593 18.7775 18.7782C19.5586 17.9971 19.9979 16.9381 19.9993 15.8335V10.2838C20.0302 7.7152 19.0883 5.22997 17.3628 3.32701C15.6373 1.42404 13.2558 0.244203 10.6965 0.0243263ZM18.3327 15.8335C18.3327 16.4965 18.0693 17.1324 17.6005 17.6012C17.1317 18.07 16.4958 18.3334 15.8328 18.3334H10.9023C5.87425 18.3334 2.00031 15.0836 1.68783 10.5971C1.60228 9.40636 1.7736 8.21111 2.19017 7.09231C2.60675 5.97351 3.25886 4.95728 4.10236 4.11244C4.94585 3.2676 5.96103 2.61386 7.07916 2.1955C8.19728 1.77714 9.39225 1.60392 10.5831 1.68758C12.7217 1.87676 14.7095 2.86828 16.1471 4.4629C17.5846 6.05752 18.3655 8.13711 18.3327 10.2838V15.8335Z" fill="#888888"/>
<path id="Vector_2" d="M4.99957 11.6661C5.91999 11.6661 6.66614 10.9199 6.66614 9.99947C6.66614 9.07904 5.91999 8.33289 4.99957 8.33289C4.07916 8.33289 3.33301 9.07904 3.33301 9.99947C3.33301 10.9199 4.07916 11.6661 4.99957 11.6661Z" fill="#888888"/>
<path id="Vector_3" d="M9.99957 11.6661C10.92 11.6661 11.6661 10.9199 11.6661 9.99947C11.6661 9.07904 10.92 8.33289 9.99957 8.33289C9.07916 8.33289 8.33301 9.07904 8.33301 9.99947C8.33301 10.9199 9.07916 11.6661 9.99957 11.6661Z" fill="#888888"/>
<path id="Vector_4" d="M14.9991 11.6661C15.9195 11.6661 16.6657 10.9199 16.6657 9.99947C16.6657 9.07904 15.9195 8.33289 14.9991 8.33289C14.0787 8.33289 13.3325 9.07904 13.3325 9.99947C13.3325 10.9199 14.0787 11.6661 14.9991 11.6661Z" fill="#888888"/>
</g>
</svg>
