<svg width="current" height="crrent" viewBox="0 0 24 22" fill="none" xmlns="http://www.w3.org/2000/svg">
<g id="active=default, ic=heart">
<path id="ic_heart" d="M17.4978 0C16.3722 0.0182655 15.2711 0.346073 14.3058 0.95032C13.3405 1.55457 12.5451 2.41385 12 3.44141C11.4549 2.41385 10.6595 1.55457 9.69417 0.95032C8.72886 0.346073 7.62781 0.0182655 6.50222 0C4.70788 0.0813327 3.01733 0.900245 1.7999 2.27783C0.582466 3.65541 -0.0628841 5.47968 0.00483915 7.3521C0.00483915 12.0939 4.78891 17.2727 8.80129 20.784C9.69715 21.5694 10.8298 22 12 22C13.1702 22 14.3029 21.5694 15.1987 20.784C19.2111 17.2727 23.9952 12.0939 23.9952 7.3521C24.0629 5.47968 23.4175 3.65541 22.2001 2.27783C20.9827 0.900245 19.2921 0.0813327 17.4978 0ZM13.9142 19.1884C13.3784 19.6592 12.7005 19.9173 12 19.9173C11.2995 19.9173 10.6216 19.6592 10.0858 19.1884C4.94984 14.6927 2.00403 10.3795 2.00403 7.3521C1.9357 6.03259 2.37025 4.73843 3.21291 3.75186C4.05557 2.7653 5.23796 2.16637 6.50222 2.0857C7.76647 2.16637 8.94887 2.7653 9.79153 3.75186C10.6342 4.73843 11.0687 6.03259 11.0004 7.3521C11.0004 7.62868 11.1057 7.89393 11.2932 8.0895C11.4806 8.28508 11.7349 8.39495 12 8.39495C12.2651 8.39495 12.5194 8.28508 12.7068 8.0895C12.8943 7.89393 12.9996 7.62868 12.9996 7.3521C12.9313 6.03259 13.3658 4.73843 14.2085 3.75186C15.0511 2.7653 16.2335 2.16637 17.4978 2.0857C18.762 2.16637 19.9444 2.7653 20.7871 3.75186C21.6297 4.73843 22.0643 6.03259 21.996 7.3521C21.996 10.3795 19.0502 14.6927 13.9142 19.1843V19.1884Z" fill="#888888"/>
</g>
</svg>
