<svg width="20" height="20" viewBox="0 0 20 20" fill="none" xmlns="http://www.w3.org/2000/svg">
<g id="ic_family">
<path id="ic_family_2" d="M16.5929 6.99635C16.5929 6.97556 16.5929 6.95477 16.5929 6.93307C16.5929 3.10405 13.6412 0 10.0001 0C6.35899 0 3.40726 3.10405 3.40726 6.93307C3.40726 6.95473 3.40726 6.97552 3.40726 6.99635C0.219773 8.84719 -0.937434 13.0649 0.822583 16.4169C2.5826 19.7689 6.59334 20.9858 9.78083 19.135C9.85472 19.0921 9.92786 19.0477 10.0001 19.0018C13.1177 20.98 17.1699 19.926 19.051 16.6475C20.9321 13.3691 19.9298 9.10774 16.8123 7.12956C16.7399 7.08366 16.6668 7.03925 16.5929 6.99635ZM10.0001 16.876C9.11351 16.043 8.54235 14.9017 8.39145 13.6616C9.44649 13.9395 10.5504 13.9395 11.6055 13.6616C11.4545 14.8997 10.8846 16.0392 10.0001 16.8717V16.876ZM10.0001 12.1329C9.47982 12.1332 8.96273 12.0469 8.46807 11.8772C8.69294 10.8148 9.2287 9.85313 10.0001 9.12742C10.7715 9.85313 11.3073 10.8148 11.5321 11.8772C11.0375 12.0469 10.5204 12.1332 10.0001 12.1329ZM6.97234 11.0409C6.06024 10.2981 5.42336 9.24366 5.17169 8.05973C6.28029 7.68007 7.48079 7.72456 8.56122 8.18538C7.82045 8.98862 7.27531 9.9683 6.97234 11.0409ZM11.439 8.18102C12.5194 7.72021 13.7199 7.67571 14.8285 8.05537C14.5777 9.2409 13.9408 10.297 13.0279 11.0409C12.7255 9.96674 12.1803 8.9855 11.439 8.18102ZM10.0001 1.73329C12.4879 1.73666 14.5872 3.68053 14.9052 6.27532C13.2431 5.83641 11.4838 6.09535 10.0001 6.99721C8.51645 6.09531 6.75713 5.83641 5.09503 6.27532C5.413 3.68057 7.51229 1.73666 10.0001 1.73329ZM1.75907 12.9995C1.75923 11.3921 2.46702 9.87531 3.67592 8.89165C4.1569 10.597 5.24023 12.0442 6.70368 12.9362C6.70368 12.957 6.70368 12.9778 6.70368 12.9995C6.70278 14.7987 7.36916 16.5273 8.56122 17.818C6.03039 18.8968 3.14712 17.6138 2.12123 14.9524C1.88211 14.332 1.75911 13.669 1.75907 12.9995ZM13.2965 18.1993C12.6597 18.1998 12.0289 18.0703 11.439 17.818C12.631 16.5274 13.2974 14.7987 13.2965 12.9995C13.2965 12.9779 13.2965 12.9571 13.2965 12.9363C14.7603 12.0444 15.8439 10.5972 16.3251 8.89169C18.4825 10.6524 18.8741 13.9189 17.1998 16.1876C16.2638 17.4558 14.8232 18.1983 13.2965 18.1993Z" fill="#222222"/>
</g>
</svg>
