<svg width="current" height="current" viewBox="0 0 16 16" fill="none" xmlns="http://www.w3.org/2000/svg">
<g id="ic_info_toast_popup">
<path id="ic_info" d="M8.55839 0.0195122C7.41543 -0.0604604 6.26863 0.106009 5.19558 0.507657C4.12253 0.909305 3.14827 1.53676 2.33873 2.34756C1.5292 3.15837 0.903263 4.1336 0.50329 5.20727C0.103317 6.28095 -0.0613628 7.42801 0.0203933 8.57085C0.314393 12.8062 4.05573 16.0008 8.72306 16.0008H12.6677C13.5515 15.9998 14.3987 15.6483 15.0236 15.0234C15.6485 14.3985 16 13.5512 16.0011 12.6675V8.22751C16.0259 6.17248 15.2725 4.18411 13.8919 2.66163C12.5114 1.13914 10.6061 0.195271 8.55839 0.0195122ZM8.00106 3.33418C8.26628 3.33418 8.52063 3.43954 8.70817 3.62707C8.8957 3.81461 9.00106 4.06896 9.00106 4.33418C9.00106 4.5994 8.8957 4.85375 8.70817 5.04129C8.52063 5.22882 8.26628 5.33418 8.00106 5.33418C7.73584 5.33418 7.48149 5.22882 7.29395 5.04129C7.10642 4.85375 7.00106 4.5994 7.00106 4.33418C7.00106 4.06896 7.10642 3.81461 7.29395 3.62707C7.48149 3.43954 7.73584 3.33418 8.00106 3.33418ZM9.33439 12.0008C9.33439 12.1777 9.26416 12.3472 9.13913 12.4723C9.01411 12.5973 8.84454 12.6675 8.66773 12.6675C8.49092 12.6675 8.32135 12.5973 8.19632 12.4723C8.0713 12.3472 8.00106 12.1777 8.00106 12.0008V8.00085H7.33439C7.15758 8.00085 6.98801 7.93061 6.86299 7.80558C6.73796 7.68056 6.66773 7.51099 6.66773 7.33418C6.66773 7.15737 6.73796 6.9878 6.86299 6.86278C6.98801 6.73775 7.15758 6.66751 7.33439 6.66751H8.00106C8.35468 6.66751 8.69382 6.80799 8.94387 7.05804C9.19392 7.30809 9.33439 7.64722 9.33439 8.00085V12.0008Z" fill="#1EA49A"/>
</g>
</svg>
