<svg width="26" height="26" viewBox="0 0 26 26" fill="none" xmlns="http://www.w3.org/2000/svg">
<g id="Group">
<path id="Vector" d="M14.9996 18.7041L11.4662 22.2375C9.31066 24.3355 5.86256 24.2888 3.76463 22.1333C1.70716 20.0193 1.70671 16.6516 3.76356 14.5371L7.29697 11.0004C7.71992 10.5772 7.71967 9.89119 7.29641 9.46824C6.87314 9.04528 6.18717 9.04553 5.76421 9.4688L2.23188 13.0054C-0.740459 15.9793 -0.73924 20.7996 2.23457 23.772C5.20838 26.7444 10.0287 26.7431 13.0011 23.7693L16.5345 20.2359C16.9501 19.8056 16.9382 19.1198 16.5079 18.7042C16.0882 18.2988 15.4226 18.2988 15.0029 18.7042H14.9996V18.7041Z" fill="#FDFDFD"/>
<path id="Vector_2" d="M23.7726 2.23303C22.3489 0.799495 20.4106 -0.00448105 18.3902 0.000545705C16.3709 -0.00483648 14.4332 0.797464 13.0088 2.22872L9.46996 5.76319C9.04669 6.18615 9.04644 6.87212 9.4694 7.29538C9.89236 7.71865 10.5783 7.7189 11.0016 7.29594L14.5382 3.76254C15.5568 2.73779 16.9431 2.16327 18.388 2.16698C21.3959 2.16799 23.8335 4.60719 23.8325 7.61511C23.8321 9.05876 23.2584 10.4432 22.2377 11.4641L18.7043 14.9975C18.281 15.4208 18.281 16.107 18.7043 16.5303C19.1275 16.9536 19.8137 16.9536 20.237 16.5303L23.7704 12.999C26.7386 10.0244 26.7395 5.20877 23.7726 2.23303Z" fill="#FDFDFD"/>
<path id="Vector_3" d="M15.4847 8.98388L8.98547 15.4831C8.55515 15.8987 8.54327 16.5845 8.95886 17.0147C9.37446 17.445 10.0602 17.4569 10.4905 17.0413C10.4995 17.0326 10.5084 17.0238 10.5171 17.0147L17.0163 10.5155C17.4319 10.0852 17.42 9.39948 16.9897 8.98388C16.57 8.57849 15.9045 8.57849 15.4847 8.98388Z" fill="#FDFDFD"/>
</g>
</svg>
