<svg width="32" height="32" viewBox="0 0 32 32" fill="none" xmlns="http://www.w3.org/2000/svg">
<g id="ic_post">
<path id="Vector" d="M24.875 1.24026L8.61902 17.4962C7.99814 18.1138 7.50592 18.8483 7.17086 19.6574C6.8358 20.4664 6.66455 21.3339 6.66702 22.2096V24.0002C6.66702 24.3539 6.80749 24.693 7.05754 24.943C7.30759 25.1931 7.64673 25.3336 8.00035 25.3336H9.79102C10.6667 25.336 11.5342 25.1648 12.3432 24.8297C13.1523 24.4947 13.8868 24.0024 14.5043 23.3816L30.7603 7.12559C31.5395 6.34448 31.9771 5.28622 31.9771 4.18292C31.9771 3.07962 31.5395 2.02136 30.7603 1.24026C29.9679 0.482784 28.9139 0.0600586 27.8177 0.0600586C26.7214 0.0600586 25.6674 0.482784 24.875 1.24026ZM28.875 5.24025L12.619 21.4962C11.8672 22.2435 10.851 22.6641 9.79102 22.6669H9.33368V22.2096C9.33646 21.1496 9.75711 20.1334 10.5043 19.3816L26.7603 3.12559C27.0451 2.85353 27.4238 2.70171 27.8177 2.70171C28.2115 2.70171 28.5902 2.85353 28.875 3.12559C29.1549 3.40628 29.3121 3.78651 29.3121 4.18292C29.3121 4.57933 29.1549 4.95957 28.875 5.24025Z" fill="#FDFDFD"/>
<path id="Vector_2" d="M30.6666 11.972C30.313 11.972 29.9739 12.1125 29.7238 12.3625C29.4738 12.6126 29.3333 12.9517 29.3333 13.3053V20H24C22.9391 20 21.9217 20.4214 21.1716 21.1716C20.4214 21.9217 20 22.9391 20 24V29.3333H6.66666C5.6058 29.3333 4.58838 28.9119 3.83824 28.1617C3.08809 27.4116 2.66667 26.3942 2.66667 25.3333V6.66666C2.66667 5.6058 3.08809 4.58838 3.83824 3.83824C4.58838 3.08809 5.6058 2.66666 6.66666 2.66666H18.7227C19.0763 2.66666 19.4154 2.52619 19.6655 2.27614C19.9155 2.02609 20.056 1.68695 20.056 1.33333C20.056 0.979711 19.9155 0.640572 19.6655 0.390524C19.4154 0.140476 19.0763 0 18.7227 0L6.66666 0C4.8992 0.00211714 3.20474 0.705175 1.95496 1.95496C0.705176 3.20474 0.00211714 4.8992 0 6.66666L0 25.3333C0.00211714 27.1008 0.705176 28.7952 1.95496 30.045C3.20474 31.2948 4.8992 31.9979 6.66666 32H21.7907C22.6665 32.0025 23.5342 31.8312 24.3435 31.4962C25.1528 31.1611 25.8875 30.6689 26.5053 30.048L30.0466 26.504C30.6676 25.8865 31.16 25.152 31.4953 24.3429C31.8306 23.5339 32.0021 22.6664 32 21.7906V13.3053C32 12.9517 31.8595 12.6126 31.6095 12.3625C31.3594 12.1125 31.0203 11.972 30.6666 11.972ZM24.62 28.1626C24.084 28.6973 23.4062 29.0674 22.6667 29.2293V24C22.6667 23.6464 22.8071 23.3072 23.0572 23.0572C23.3072 22.8071 23.6464 22.6666 24 22.6666H29.2333C29.0684 23.4047 28.6987 24.0812 28.1667 24.6186L24.62 28.1626Z" fill="#FDFDFD"/>
</g>
</svg>
