<svg width="current" height="current" viewBox="0 0 24 22" fill="none" xmlns="http://www.w3.org/2000/svg">
<g id="active=pressed, ic=heart">
<path id="ic_heart_pressed" d="M17.4978 0C16.3722 0.0182655 15.2711 0.346073 14.3058 0.95032C13.3405 1.55457 12.5451 2.41385 12 3.44141C11.4549 2.41385 10.6595 1.55457 9.69417 0.95032C8.72886 0.346073 7.62781 0.0182655 6.50222 0C4.70788 0.0813327 3.01733 0.900245 1.7999 2.27783C0.582466 3.65541 -0.0628841 5.47968 0.00483915 7.3521C0.00483915 12.0939 4.78891 17.2727 8.80129 20.784C9.69715 21.5694 10.8298 22 12 22C13.1702 22 14.3029 21.5694 15.1987 20.784C19.2111 17.2727 23.9952 12.0939 23.9952 7.3521C24.0629 5.47968 23.4175 3.65541 22.2001 2.27783C20.9827 0.900245 19.2921 0.0813327 17.4978 0Z" fill="#1EA49A"/>
</g>
</svg>
