<svg width="current" height="current" viewBox="0 0 24 24" fill="none" xmlns="http://www.w3.org/2000/svg">
<g id="active=default, ic=member">
<path id="ic_member" d="M18.5455 0H7.63636C6.57626 0.00127838 5.53953 0.285705 4.65296 0.818499C3.76639 1.35129 3.06841 2.10936 2.64436 3H1.09091C0.801582 3 0.524105 3.10536 0.31952 3.29289C0.114935 3.48043 0 3.73478 0 4C0 4.26522 0.114935 4.51957 0.31952 4.70711C0.524105 4.89464 0.801582 5 1.09091 5H2.18182V7H1.09091C0.801582 7 0.524105 7.10536 0.31952 7.29289C0.114935 7.48043 0 7.73478 0 8C0 8.26522 0.114935 8.51957 0.31952 8.70711C0.524105 8.89464 0.801582 9 1.09091 9H2.18182V11H1.09091C0.801582 11 0.524105 11.1054 0.31952 11.2929C0.114935 11.4804 0 11.7348 0 12C0 12.2652 0.114935 12.5196 0.31952 12.7071C0.524105 12.8946 0.801582 13 1.09091 13H2.18182V15H1.09091C0.801582 15 0.524105 15.1054 0.31952 15.2929C0.114935 15.4804 0 15.7348 0 16C0 16.2652 0.114935 16.5196 0.31952 16.7071C0.524105 16.8946 0.801582 17 1.09091 17H2.18182V19H1.09091C0.801582 19 0.524105 19.1054 0.31952 19.2929C0.114935 19.4804 0 19.7348 0 20C0 20.2652 0.114935 20.5196 0.31952 20.7071C0.524105 20.8946 0.801582 21 1.09091 21H2.64436C3.06841 21.8906 3.76639 22.6487 4.65296 23.1815C5.53953 23.7143 6.57626 23.9987 7.63636 24H18.5455C19.9916 23.9984 21.3779 23.4711 22.4005 22.5338C23.423 21.5964 23.9983 20.3256 24 19V5C23.9983 3.67441 23.423 2.40356 22.4005 1.46622C21.3779 0.528882 19.9916 0.00158786 18.5455 0ZM21.8182 19C21.8182 19.7956 21.4734 20.5587 20.8596 21.1213C20.2459 21.6839 19.4134 22 18.5455 22H7.63636C6.76838 22 5.93595 21.6839 5.3222 21.1213C4.70844 20.5587 4.36364 19.7956 4.36364 19V5C4.36364 4.20435 4.70844 3.44129 5.3222 2.87868C5.93595 2.31607 6.76838 2 7.63636 2H18.5455C19.4134 2 20.2459 2.31607 20.8596 2.87868C21.4734 3.44129 21.8182 4.20435 21.8182 5V19ZM13.0909 12C13.9589 12 14.7913 11.6839 15.4051 11.1213C16.0188 10.5587 16.3636 9.79565 16.3636 9C16.3636 8.20435 16.0188 7.44129 15.4051 6.87868C14.7913 6.31607 13.9589 6 13.0909 6C12.2229 6 11.3905 6.31607 10.7767 6.87868C10.163 7.44129 9.81818 8.20435 9.81818 9C9.81818 9.79565 10.163 10.5587 10.7767 11.1213C11.3905 11.6839 12.2229 12 13.0909 12ZM18.5455 18C18.5455 18.2652 18.4305 18.5196 18.2259 18.7071C18.0214 18.8946 17.7439 19 17.4545 19C17.1652 19 16.8877 18.8946 16.6832 18.7071C16.4786 18.5196 16.3636 18.2652 16.3636 18C16.3636 17.2044 16.0188 16.4413 15.4051 15.8787C14.7913 15.3161 13.9589 15 13.0909 15C12.2229 15 11.3905 15.3161 10.7767 15.8787C10.163 16.4413 9.81818 17.2044 9.81818 18C9.81818 18.2652 9.70325 18.5196 9.49866 18.7071C9.29408 18.8946 9.0166 19 8.72727 19C8.43795 19 8.16047 18.8946 7.95588 18.7071C7.7513 18.5196 7.63636 18.2652 7.63636 18C7.86655 11.392 18.3175 11.394 18.5455 18Z" fill="#888888"/>
</g>
</svg>
