<svg width="current" height="current" viewBox="0 0 24 24" fill="none" xmlns="http://www.w3.org/2000/svg">
<g id="active=default, ic=mypage">
<path id="Vector" d="M12 12C13.1867 12 14.3467 11.6481 15.3334 10.9888C16.3201 10.3295 17.0892 9.39246 17.5433 8.2961C17.9974 7.19975 18.1162 5.99335 17.8847 4.82946C17.6532 3.66558 17.0818 2.59648 16.2426 1.75736C15.4035 0.918247 14.3344 0.346802 13.1705 0.115291C12.0067 -0.11622 10.8003 0.00259972 9.7039 0.456726C8.60754 0.910851 7.67047 1.67989 7.01118 2.66658C6.35189 3.65328 6 4.81331 6 6C6.00159 7.59081 6.63424 9.11602 7.75911 10.2409C8.88399 11.3658 10.4092 11.9984 12 12ZM12 2C12.7911 2 13.5645 2.2346 14.2223 2.67412C14.8801 3.11365 15.3928 3.73836 15.6955 4.46927C15.9983 5.20017 16.0775 6.00444 15.9231 6.78036C15.7688 7.55629 15.3878 8.26902 14.8284 8.82843C14.269 9.38784 13.5563 9.7688 12.7804 9.92314C12.0044 10.0775 11.2002 9.99827 10.4693 9.69552C9.73836 9.39277 9.11365 8.88008 8.67412 8.22228C8.2346 7.56449 8 6.79113 8 6C8 4.93914 8.42143 3.92172 9.17157 3.17158C9.92172 2.42143 10.9391 2 12 2Z" fill="#888888"/>
<path id="Ellipse 22" d="M1.04641 23C1.28446 20.4957 2.42375 18.6164 4.12469 17.3071C6.0759 15.8052 8.84166 15 12 15C15.1583 15 17.9241 15.8052 19.8753 17.3071C21.5763 18.6164 22.7155 20.4957 22.9536 23H12H1.04641Z" stroke="#888888" stroke-width="2"/>
</g>
</svg>
