<svg width="8" height="16" viewBox="0 0 8 16" fill="none" xmlns="http://www.w3.org/2000/svg">
<g id="direction=right">
<path id="Vector" d="M0 14.9972C0.000233403 14.732 0.105743 14.4779 0.293333 14.2905L5.408 9.17583C5.56281 9.02106 5.68562 8.83731 5.7694 8.63507C5.85319 8.43283 5.89631 8.21607 5.89631 7.99716C5.89631 7.77826 5.85319 7.56149 5.7694 7.35926C5.68562 7.15702 5.56281 6.97327 5.408 6.8185L0.3 1.70716C0.117842 1.51856 0.0170475 1.26596 0.0193259 1.00376C0.0216043 0.741565 0.126773 0.490753 0.312182 0.305344C0.49759 0.119936 0.748402 0.0147674 1.0106 0.012489C1.2728 0.0102106 1.5254 0.111005 1.714 0.293163L6.822 5.4005C7.50882 6.08867 7.89456 7.02123 7.89456 7.9935C7.89456 8.96577 7.50882 9.89832 6.822 10.5865L1.70733 15.7012C1.56768 15.8409 1.38976 15.9362 1.19603 15.9749C1.0023 16.0136 0.801439 15.9941 0.618792 15.9188C0.436146 15.8435 0.2799 15.7157 0.169772 15.5517C0.0596439 15.3877 0.000568198 15.1947 0 14.9972Z" fill="fill"/>
</g>
</svg>
