<svg width="current" height="current" viewBox="0 0 40 40" fill="none" xmlns="http://www.w3.org/2000/svg">
<g id="ic_pic">
<path id="Vector" d="M31.6667 0H8.33333C6.12401 0.00264643 4.00593 0.88147 2.4437 2.4437C0.88147 4.00593 0.00264643 6.12401 0 8.33333L0 31.6667C0.00264643 33.876 0.88147 35.9941 2.4437 37.5563C4.00593 39.1185 6.12401 39.9974 8.33333 40H31.6667C33.876 39.9974 35.9941 39.1185 37.5563 37.5563C39.1185 35.9941 39.9974 33.876 40 31.6667V8.33333C39.9974 6.12401 39.1185 4.00593 37.5563 2.4437C35.9941 0.88147 33.876 0.00264643 31.6667 0V0ZM8.33333 3.33333H31.6667C32.9927 3.33333 34.2645 3.86012 35.2022 4.7978C36.1399 5.73548 36.6667 7.00725 36.6667 8.33333V31.6667C36.6638 32.4091 36.4929 33.1413 36.1667 33.8083L20.895 18.5367C20.1211 17.7626 19.2024 17.1486 18.1912 16.7297C17.18 16.3107 16.0962 16.0951 15.0017 16.0951C13.9071 16.0951 12.8233 16.3107 11.8121 16.7297C10.8009 17.1486 9.88218 17.7626 9.10833 18.5367L3.33333 24.31V8.33333C3.33333 7.00725 3.86012 5.73548 4.7978 4.7978C5.73548 3.86012 7.00725 3.33333 8.33333 3.33333ZM8.33333 36.6667C7.00725 36.6667 5.73548 36.1399 4.7978 35.2022C3.86012 34.2645 3.33333 32.9927 3.33333 31.6667V29.0233L11.4633 20.8933C11.9277 20.4287 12.479 20.0601 13.0858 19.8086C13.6927 19.5572 14.3431 19.4277 15 19.4277C15.6569 19.4277 16.3073 19.5572 16.9142 19.8086C17.521 20.0601 18.0723 20.4287 18.5367 20.8933L33.8083 36.1667C33.1413 36.4929 32.4091 36.6638 31.6667 36.6667H8.33333Z" fill="current"/>
<path id="Vector_2" d="M26.6668 17.4992C27.8206 17.4992 28.9484 17.1571 29.9077 16.5161C30.8669 15.8751 31.6146 14.9641 32.0561 13.8982C32.4976 12.8323 32.6132 11.6594 32.3881 10.5278C32.163 9.39627 31.6074 8.35687 30.7916 7.54107C29.9758 6.72526 28.9364 6.16969 27.8049 5.94461C26.6733 5.71953 25.5004 5.83505 24.4345 6.27656C23.3686 6.71807 22.4576 7.46574 21.8166 8.42503C21.1756 9.38432 20.8335 10.5121 20.8335 11.6659C20.8335 13.213 21.4481 14.6967 22.542 15.7906C23.636 16.8846 25.1197 17.4992 26.6668 17.4992ZM26.6668 9.16586C27.1613 9.16586 27.6446 9.31248 28.0558 9.58718C28.4669 9.86189 28.7873 10.2523 28.9765 10.7091C29.1657 11.166 29.2153 11.6686 29.1188 12.1536C29.0223 12.6385 28.7842 13.084 28.4346 13.4336C28.085 13.7833 27.6395 14.0214 27.1546 14.1178C26.6696 14.2143 26.1669 14.1648 25.7101 13.9756C25.2533 13.7863 24.8629 13.4659 24.5882 13.0548C24.3135 12.6437 24.1668 12.1603 24.1668 11.6659C24.1668 11.0028 24.4302 10.3669 24.8991 9.89809C25.3679 9.42925 26.0038 9.16586 26.6668 9.16586Z" fill="current"/>
</g>
</svg>
