<svg width="20" height="20" viewBox="0 0 20 20" fill="none" xmlns="http://www.w3.org/2000/svg">
<g id="ic_x">
<path id="Vector" d="M11.1784 9.99497L19.756 1.413C19.9078 1.25575 19.9918 1.04513 19.9899 0.826523C19.988 0.607912 19.9004 0.398792 19.7459 0.244205C19.5913 0.0896176 19.3823 0.00193119 19.1638 3.15186e-05C18.9453 -0.00186815 18.7348 0.082171 18.5777 0.234048L10 8.81602L1.42235 0.234048C1.26518 0.082171 1.05467 -0.00186815 0.836169 3.15186e-05C0.617668 0.00193119 0.408654 0.0896176 0.254144 0.244205C0.0996349 0.398792 0.0119926 0.607912 0.0100939 0.826523C0.00819514 1.04513 0.092192 1.25575 0.243993 1.413L8.82165 9.99497L0.243993 18.5769C0.0877644 18.7333 0 18.9453 0 19.1664C0 19.3875 0.0877644 19.5995 0.243993 19.7559C0.400269 19.9122 0.612196 20 0.83317 20C1.05414 20 1.26607 19.9122 1.42235 19.7559L10 11.1739L18.5777 19.7559C18.7339 19.9122 18.9459 20 19.1668 20C19.3878 20 19.5997 19.9122 19.756 19.7559C19.9122 19.5995 20 19.3875 20 19.1664C20 18.9453 19.9122 18.7333 19.756 18.5769L11.1784 9.99497Z" fill="#FDFDFD"/>
</g>
</svg>
