<svg width="current" height="current" viewBox="0 0 24 24" fill="none" xmlns="http://www.w3.org/2000/svg">
<g id="new noti=yes">
<path id="Vector" d="M18.6402 7.91097L19.9406 13.3279C20.0856 13.925 20.0925 14.5473 19.9608 15.1474C19.8291 15.7476 19.5622 16.3098 19.1804 16.7913C19.0802 16.9185 18.9725 17.0397 18.858 17.1542C18.2708 17.7397 16.6445 18.1294 15.8273 18.2701C15.7032 19.1357 15.2731 19.9283 14.6149 20.5042C13.9568 21.08 13.1141 21.4011 12.2396 21.4092C11.3652 21.4173 10.5167 21.1119 9.84799 20.5484C9.17928 19.9848 8.73455 19.2004 8.59437 18.3372L8.03286 18.3383C7.42004 18.3382 6.81517 18.1996 6.26355 17.9326C5.71192 17.6657 5.22784 17.2774 4.84755 16.7969C4.46726 16.3163 4.20062 15.756 4.0676 15.1578C3.93458 14.5596 3.93863 13.939 4.07945 13.3426L5.28048 8.24983C5.58659 6.85103 6.32419 5.58366 7.38921 4.62653C8.45423 3.66941 9.79289 3.07085 11.2163 2.91532L11.2163 1.10477C11.2145 1.00231 11.2332 0.90053 11.2712 0.805358C11.3091 0.710185 11.3657 0.62353 11.4375 0.550445C11.5093 0.477362 11.595 0.419315 11.6895 0.379691C11.784 0.340065 11.8854 0.319658 11.9879 0.319657C12.0904 0.319658 12.1918 0.340065 12.2863 0.379689C12.3808 0.419314 12.4665 0.477362 12.5383 0.550446C12.6101 0.623529 12.6667 0.710186 12.7047 0.805359C12.7426 0.900532 12.7613 1.00231 12.7595 1.10477L12.76 2.91368C14.1262 3.06696 15.4155 3.62438 16.463 4.51463C17.5106 5.40487 18.2686 6.58743 18.6402 7.91097ZM14.2328 18.3388L10.1736 18.3383C10.2986 18.7805 10.5652 19.1694 10.9326 19.4455C11.3 19.7216 11.7478 19.8696 12.2073 19.8667C12.6621 19.855 13.1018 19.7014 13.465 19.4275C13.8282 19.1535 14.0967 18.7729 14.2328 18.3388ZM12.0065 4.41265C10.7887 4.4068 9.60592 4.81932 8.65592 5.58118C7.70593 6.34304 7.04639 7.40803 6.78763 8.59797L5.58114 13.6962C5.49384 14.0661 5.49136 14.451 5.57389 14.822C5.65642 15.1931 5.82182 15.5406 6.05771 15.8386C6.2936 16.1367 6.59386 16.3775 6.936 16.543C7.27815 16.7086 7.65331 16.7946 8.0334 16.7946L15.9899 16.7951C16.3708 16.7953 16.7468 16.7092 17.0896 16.5431C17.4325 16.3771 17.7332 16.1355 17.9692 15.8364C18.2051 15.5374 18.3703 15.1888 18.4521 14.8168C18.5339 14.4447 18.5303 14.059 18.4416 13.6886L17.1484 8.29731C16.8298 7.1783 16.1553 6.19355 15.227 5.49213C14.2987 4.79071 13.1672 4.4108 12.0037 4.40992L12.0065 4.41265Z" fill="#222222"/>
<path id="Vector_2" d="M21 4.00015C22.1046 4.00015 23 3.10472 23 2.00014C23 0.895559 22.1046 0.00012207 21 0.00012207C19.8954 0.00012207 19 0.895559 19 2.00014C19 3.10472 19.8954 4.00015 21 4.00015Z" fill="#1EA49A"/>
</g>
</svg>
