<svg width="current" height="current" viewBox="0 0 24 24" fill="none" xmlns="http://www.w3.org/2000/svg">
<g id="new noti=no">
<path id="Vector" d="M18.6402 7.91072L19.9406 13.3276C20.0856 13.9247 20.0925 14.547 19.9608 15.1472C19.8291 15.7473 19.5622 16.3096 19.1804 16.791C19.0802 16.9183 18.9725 17.0394 18.858 17.1539C18.2708 17.7394 16.6445 18.1292 15.8273 18.2698C15.7032 19.1355 15.2731 19.928 14.6149 20.5039C13.9568 21.0798 13.1141 21.4009 12.2396 21.409C11.3652 21.4171 10.5167 21.1117 9.84799 20.5481C9.17928 19.9846 8.73455 19.2001 8.59437 18.3369L8.03286 18.338C7.42004 18.338 6.81517 18.1993 6.26355 17.9324C5.71192 17.6655 5.22784 17.2772 4.84755 16.7966C4.46726 16.3161 4.20062 15.7557 4.0676 15.1575C3.93458 14.5593 3.93863 13.9388 4.07945 13.3424L5.28048 8.24959C5.58659 6.85079 6.32419 5.58342 7.38921 4.62629C8.45423 3.66917 9.79289 3.07061 11.2163 2.91507L11.2163 1.10452C11.2145 1.00207 11.2332 0.900286 11.2712 0.805114C11.3091 0.709941 11.3657 0.623285 11.4375 0.550201C11.5093 0.477118 11.595 0.419071 11.6895 0.379447C11.784 0.339821 11.8854 0.319414 11.9879 0.319413C12.0904 0.319414 12.1918 0.33982 12.2863 0.379445C12.3808 0.41907 12.4665 0.477118 12.5383 0.550202C12.6101 0.623285 12.6667 0.709942 12.7047 0.805114C12.7426 0.900288 12.7613 1.00207 12.7595 1.10452L12.76 2.91344C14.1262 3.06671 15.4155 3.62414 16.463 4.51438C17.5106 5.40462 18.2686 6.58718 18.6402 7.91072ZM14.2328 18.3386L10.1736 18.338C10.2986 18.7802 10.5652 19.1692 10.9326 19.4453C11.3 19.7214 11.7478 19.8693 12.2073 19.8665C12.6621 19.8548 13.1018 19.7012 13.465 19.4272C13.8282 19.1533 14.0967 18.7726 14.2328 18.3386ZM12.0065 4.4124C10.7887 4.40656 9.60592 4.81908 8.65592 5.58094C7.70593 6.3428 7.04639 7.40779 6.78763 8.59773L5.58114 13.696C5.49384 14.0659 5.49136 14.4508 5.57389 14.8218C5.65642 15.1928 5.82182 15.5404 6.05771 15.8384C6.2936 16.1364 6.59386 16.3772 6.936 16.5428C7.27815 16.7083 7.65331 16.7943 8.0334 16.7943L15.9899 16.7949C16.3708 16.7951 16.7468 16.7089 17.0896 16.5429C17.4325 16.3768 17.7332 16.1352 17.9692 15.8362C18.2051 15.5372 18.3703 15.1886 18.4521 14.8165C18.5339 14.4445 18.5303 14.0588 18.4416 13.6883L17.1484 8.29706C16.8298 7.17805 16.1553 6.19331 15.227 5.49188C14.2987 4.79046 13.1672 4.41056 12.0037 4.40968L12.0065 4.4124Z" fill="#222222"/>
</g>
</svg>
