<svg width="48" height="76" viewBox="0 0 48 76" fill="none" xmlns="http://www.w3.org/2000/svg">
<g id="calendar_no_image">
<rect id="bg_calendar" width="48" height="76" rx="6" fill="#FDFDFD"/>
<path id="Vector" d="M27.3363 40.3334C26.9407 40.3334 26.5537 40.216 26.2248 39.9963C25.8957 39.7766 25.6392 39.4642 25.4878 39.0987C25.3364 38.7332 25.2968 38.3311 25.374 37.9432C25.4511 37.5552 25.6418 37.1988 25.9216 36.9191C26.2013 36.6394 26.5579 36.449 26.946 36.3718C27.3342 36.2946 27.7365 36.3342 28.1021 36.4856C28.4676 36.637 28.7801 36.8934 29 37.2222C29.2199 37.5511 29.3372 37.9378 29.3372 38.3334C29.3372 38.8638 29.1264 39.3724 28.7512 39.7475C28.376 40.1227 27.8671 40.3334 27.3363 40.3334ZM37.1418 34.032C36.6064 30.9388 34.9934 28.1347 32.5887 26.1156C30.1838 24.0967 27.1421 22.9931 24.0016 23C14.7977 23 12.162 29.232 10.4212 33.356C10.0683 34.5228 9.46832 35.6002 8.66184 36.5147C8.42094 36.6551 8.2302 36.8675 8.11628 37.1219C8.00237 37.3764 7.97115 37.66 8.02704 37.9332C8.0828 38.2063 8.22286 38.4551 8.42735 38.6446C8.63196 38.834 8.89074 38.9545 9.16739 38.9894C12.4645 39.2664 15.7807 38.764 18.8474 37.5227C18.6783 37.8975 18.6288 38.3154 18.7057 38.7194C18.7826 39.1234 18.9823 39.4937 19.2775 39.7801C19.5727 40.0667 19.949 40.2552 20.3551 40.3201C20.7614 40.3851 21.1778 40.3234 21.5476 40.1432C21.9175 39.9631 22.2227 39.6734 22.422 39.3136C22.6212 38.9538 22.7045 38.5414 22.6608 38.1324C22.6169 37.7235 22.4482 37.338 22.1772 37.0286C21.9065 36.7191 21.5467 36.5004 21.1471 36.4027C23.7676 34.9352 26.0265 32.9002 27.7578 30.4467C27.8678 30.3048 27.9479 30.1423 27.9934 29.9687C28.0389 29.7952 28.049 29.6143 28.0229 29.4368C27.9969 29.2592 27.9353 29.0888 27.8417 28.9358C27.7482 28.7826 27.6247 28.6499 27.4788 28.5456C27.3327 28.4414 27.1672 28.3675 26.9919 28.3287C26.8167 28.2899 26.6354 28.2868 26.459 28.3196C26.2826 28.3524 26.1145 28.4206 25.9651 28.5198C25.8156 28.6191 25.6876 28.7475 25.5889 28.8974C24.0335 31.0864 22.0028 32.8956 19.649 34.1896C17.2952 35.4835 14.6792 36.2287 11.9966 36.3694C12.2994 35.7654 12.5808 35.0947 12.8796 34.392C14.5203 30.504 16.5625 25.6667 24.0016 25.6667C26.6372 25.6604 29.1814 26.6319 31.1414 28.3931C33.1014 30.1543 34.3379 32.5798 34.6114 35.2C34.6419 35.4866 34.7645 35.7554 34.9607 35.9664C35.1569 36.1775 35.4163 36.3192 35.6998 36.3707C36.1859 36.4656 36.6193 36.7375 36.9165 37.1335C37.2135 37.5295 37.3532 38.0215 37.3085 38.5144C37.2637 39.0074 37.0376 39.4663 36.6738 39.8022C36.3102 40.1382 35.8348 40.3275 35.3397 40.3334C35.227 40.3302 35.1145 40.3182 35.0035 40.2974C34.6925 40.2407 34.3714 40.2969 34.0981 40.4562C33.8249 40.6153 33.6176 40.8668 33.5136 41.1653C32.2917 44.628 28.1794 48.3333 24.0016 48.3333C20.1333 48.3333 16.5318 45.2893 14.9765 42.2813C14.8138 41.9673 14.533 41.7308 14.1958 41.6237C13.8586 41.5167 13.4925 41.548 13.1784 41.7107C12.8643 41.8733 12.6276 42.154 12.5205 42.4911C12.4135 42.8281 12.4448 43.194 12.6075 43.508C13.9899 46.0864 16.0958 48.2052 18.666 49.604V53.6667C18.666 54.0203 18.8066 54.3595 19.0567 54.6095C19.307 54.8595 19.6462 55 19.9999 55C20.3537 55 20.693 54.8595 20.9431 54.6095C21.1934 54.3595 21.3338 54.0203 21.3338 53.6667V50.6507C23.0814 51.12 24.9219 51.12 26.6694 50.6507V53.6667C26.6694 54.0203 26.81 54.3595 27.0601 54.6095C27.3103 54.8595 27.6495 55 28.0033 55C28.357 55 28.6964 54.8595 28.9465 54.6095C29.1967 54.3595 29.3372 54.0203 29.3372 53.6667V49.6053C32.0906 48.1257 34.3013 45.8085 35.6492 42.9893C36.6973 42.9179 37.6908 42.4951 38.4687 41.7894C39.2468 41.0836 39.7639 40.1362 39.9365 39.1003C40.1092 38.0643 39.9272 37.0006 39.4201 36.0808C38.9129 35.1611 38.1102 34.4392 37.1418 34.032Z" fill="#1EA49A"/>
</g>
</svg>
