<svg width="50" height="21" viewBox="0 0 50 21" fill="none" xmlns="http://www.w3.org/2000/svg">
<g id="logo_woory 1">
<path id="Vector" fill-rule="evenodd" clip-rule="evenodd" d="M49.5581 6.45124C49.8119 6.51821 49.9629 6.775 49.8948 7.02487L49.6481 7.92962C49.58 8.17948 49.319 8.32776 49.0652 8.26079L25.2021 1.97208C25.0406 1.92952 24.8706 1.92952 24.7091 1.97208L0.846047 8.26083C0.592019 8.32781 0.330906 8.17953 0.262838 7.92967L0.0163439 7.02491C-0.0517234 6.77505 0.0990299 6.51821 0.353061 6.45128L24.7312 0.0267884C24.7372 0.0251907 24.7433 0.0237155 24.7494 0.0223614C24.8829 -0.00743008 25.028 -0.00745406 25.1616 0.0222911C25.1677 0.0236553 25.1738 0.0251427 25.1799 0.0267549L49.5581 6.45124Z" fill="#222222"/>
<path id="Vector_2" d="M19.527 12.4378C19.3857 12.4378 19.2476 12.3966 19.1302 12.3194C19.0127 12.2422 18.9211 12.1325 18.8671 12.0041C18.813 11.8757 18.7989 11.7345 18.8264 11.5982C18.854 11.4619 18.922 11.3367 19.0219 11.2385C19.1218 11.1402 19.2491 11.0733 19.3876 11.0462C19.5262 11.0191 19.6698 11.033 19.8003 11.0862C19.9308 11.1394 20.0424 11.2294 20.1209 11.3449C20.1994 11.4605 20.2413 11.5963 20.2413 11.7353C20.2413 11.9216 20.166 12.1002 20.0321 12.232C19.8981 12.3638 19.7164 12.4378 19.527 12.4378ZM23.0274 10.2244C22.8363 9.13785 22.2605 8.15287 21.402 7.44365C20.5435 6.73448 19.4576 6.34683 18.3365 6.34927C15.0508 6.34927 14.1098 8.53832 13.4884 9.98691C13.3624 10.3968 13.1482 10.7752 12.8603 11.0964C12.7743 11.1457 12.7062 11.2204 12.6655 11.3097C12.6249 11.3991 12.6137 11.4987 12.6337 11.5947C12.6536 11.6906 12.7036 11.778 12.7766 11.8446C12.8496 11.9111 12.942 11.9535 13.0408 11.9657C14.2178 12.063 15.4017 11.8865 16.4965 11.4505C16.4361 11.5821 16.4184 11.7289 16.4459 11.8708C16.4733 12.0127 16.5446 12.1429 16.65 12.2435C16.7554 12.3441 16.8897 12.4103 17.0347 12.4331C17.1798 12.4559 17.3284 12.4343 17.4604 12.371C17.5925 12.3077 17.7014 12.2059 17.7726 12.0796C17.8437 11.9532 17.8734 11.8083 17.8578 11.6647C17.8422 11.521 17.7819 11.3856 17.6852 11.2769C17.5885 11.1682 17.4601 11.0914 17.3174 11.0571C18.253 10.5416 19.0593 9.82679 19.6774 8.96498C19.7167 8.91515 19.7453 8.85806 19.7615 8.79708C19.7778 8.73615 19.7814 8.6726 19.7721 8.61026C19.7628 8.54787 19.7408 8.48802 19.7074 8.43425C19.674 8.38044 19.6299 8.33384 19.5778 8.29722C19.5257 8.26059 19.4666 8.23465 19.404 8.22102C19.3414 8.20739 19.2767 8.20631 19.2138 8.21783C19.1508 8.22935 19.0908 8.25328 19.0374 8.28813C18.9841 8.32302 18.9384 8.36812 18.9032 8.42077C18.3479 9.1897 17.6229 9.8252 16.7826 10.2797C15.9423 10.7342 15.0084 10.996 14.0508 11.0454C14.1589 10.8332 14.2593 10.5976 14.366 10.3508C14.9517 8.98512 15.6808 7.28596 18.3365 7.28596C19.2774 7.28376 20.1856 7.625 20.8853 8.24364C21.5851 8.86228 22.0265 9.71424 22.1241 10.6346C22.135 10.7353 22.1788 10.8297 22.2488 10.9038C22.3189 10.978 22.4114 11.0278 22.5127 11.0458C22.6862 11.0792 22.8409 11.1747 22.947 11.3138C23.0531 11.4529 23.1029 11.6257 23.087 11.7989C23.071 11.972 22.9902 12.1332 22.8604 12.2512C22.7306 12.3692 22.5609 12.4357 22.3841 12.4378C22.3439 12.4366 22.3037 12.4324 22.2641 12.4251C22.1531 12.4052 22.0384 12.425 21.9409 12.4809C21.8433 12.5368 21.7693 12.6252 21.7322 12.73C21.296 13.9463 19.8279 15.2478 18.3365 15.2478C16.9555 15.2478 15.6698 14.1786 15.1146 13.122C15.0565 13.0117 14.9562 12.9286 14.8359 12.891C14.7155 12.8534 14.5848 12.8644 14.4727 12.9216C14.3605 12.9787 14.2761 13.0773 14.2378 13.1957C14.1996 13.3141 14.2108 13.4426 14.2689 13.5529C14.7624 14.4586 15.5142 15.2028 16.4317 15.6942V17.1212C16.4317 17.2454 16.4819 17.3646 16.5712 17.4524C16.6605 17.5402 16.7816 17.5896 16.9079 17.5896C17.0342 17.5896 17.1553 17.5402 17.2446 17.4524C17.334 17.3646 17.3841 17.2454 17.3841 17.1212V16.0618C18.008 16.2267 18.665 16.2267 19.2889 16.0618V17.1212C19.2889 17.2454 19.3391 17.3646 19.4283 17.4524C19.5177 17.5402 19.6388 17.5896 19.7651 17.5896C19.8913 17.5896 20.0125 17.5402 20.1018 17.4524C20.1911 17.3646 20.2413 17.2454 20.2413 17.1212V15.6947C21.2242 15.1749 22.0134 14.361 22.4946 13.3707C22.8688 13.3456 23.2234 13.1971 23.5012 12.9492C23.7789 12.7013 23.9635 12.3685 24.0252 12.0046C24.0868 11.6407 24.0218 11.2671 23.8408 10.944C23.6597 10.621 23.3732 10.3674 23.0274 10.2244Z" fill="#1EA49A"/>
<path id="Vector_3" d="M29.8027 13.2964C29.6849 13.2964 29.5698 13.2621 29.4719 13.1978C29.374 13.1335 29.2976 13.042 29.2525 12.935C29.2075 12.8281 29.1957 12.7104 29.2187 12.5968C29.2416 12.4832 29.2984 12.3789 29.3816 12.297C29.4649 12.2152 29.571 12.1594 29.6865 12.1368C29.8021 12.1142 29.9218 12.1258 30.0306 12.1701C30.1394 12.2144 30.2324 12.2895 30.2978 12.3857C30.3633 12.482 30.3982 12.5952 30.3982 12.711C30.3982 12.8663 30.3355 13.0152 30.2238 13.125C30.1121 13.2348 29.9606 13.2964 29.8027 13.2964ZM32.721 11.4519C32.5616 10.5465 32.0816 9.72568 31.3659 9.13468C30.6502 8.54372 29.7449 8.22065 28.8103 8.22267C26.071 8.22267 25.2865 10.0469 24.7685 11.254C24.6634 11.5956 24.4848 11.9109 24.2448 12.1786C24.1732 12.2198 24.1164 12.2819 24.0825 12.3564C24.0486 12.4309 24.0393 12.5139 24.0559 12.5939C24.0725 12.6738 24.1142 12.7467 24.175 12.8021C24.2359 12.8576 24.313 12.8928 24.3953 12.903C25.3766 12.9842 26.3635 12.8371 27.2763 12.4737C27.2259 12.5834 27.2112 12.7057 27.2341 12.824C27.257 12.9422 27.3164 13.0507 27.4043 13.1345C27.4921 13.2184 27.6041 13.2735 27.725 13.2926C27.8459 13.3116 27.9698 13.2935 28.0799 13.2408C28.19 13.1881 28.2808 13.1033 28.3401 12.9979C28.3994 12.8926 28.4242 12.7719 28.4112 12.6522C28.3981 12.5325 28.3479 12.4197 28.2673 12.3291C28.1867 12.2385 28.0796 12.1745 27.9607 12.1459C28.7406 11.7163 29.4129 11.1207 29.9282 10.4024C29.9609 10.3609 29.9847 10.3134 29.9983 10.2625C30.0118 10.2117 30.0148 10.1588 30.0071 10.1068C29.9993 10.0549 29.981 10.005 29.9531 9.96018C29.9253 9.91536 29.8885 9.87649 29.8451 9.84595C29.8016 9.81546 29.7524 9.79383 29.7002 9.78249C29.6481 9.77111 29.5941 9.77022 29.5416 9.77982C29.4891 9.78942 29.4391 9.80938 29.3946 9.83841C29.3501 9.8675 29.312 9.90506 29.2826 9.94894C28.8197 10.5897 28.2154 11.1193 27.5148 11.498C26.8143 11.8768 26.0357 12.095 25.2373 12.1361C25.3275 11.9593 25.4112 11.763 25.5001 11.5573C25.9884 10.4192 26.5962 9.00326 28.8103 9.00326C29.5946 9.00143 30.3518 9.28581 30.9352 9.80132C31.5185 10.3168 31.8865 11.0268 31.9679 11.7938C31.977 11.8777 32.0135 11.9564 32.0719 12.0181C32.1303 12.0799 32.2075 12.1215 32.2919 12.1365C32.4365 12.1643 32.5655 12.2438 32.6539 12.3598C32.7424 12.4757 32.7839 12.6197 32.7706 12.764C32.7573 12.9083 32.69 13.0426 32.5817 13.141C32.4735 13.2393 32.332 13.2947 32.1847 13.2964C32.1511 13.2955 32.1176 13.292 32.0846 13.2859C31.992 13.2693 31.8965 13.2858 31.8152 13.3324C31.7338 13.379 31.6722 13.4526 31.6412 13.54C31.2775 14.5535 30.0536 15.6382 28.8103 15.6382C27.659 15.6382 26.5871 14.7471 26.1242 13.8667C26.0758 13.7747 25.9922 13.7055 25.8918 13.6742C25.7915 13.6428 25.6825 13.652 25.5891 13.6996C25.4955 13.7472 25.4251 13.8294 25.3933 13.9281C25.3614 14.0267 25.3707 14.1338 25.4191 14.2257C25.8306 14.9805 26.4573 15.6007 27.2223 16.0101V17.1993C27.2223 17.3028 27.2641 17.4021 27.3385 17.4753C27.413 17.5485 27.514 17.5896 27.6193 17.5896C27.7245 17.5896 27.8255 17.5485 27.9 17.4753C27.9745 17.4021 28.0163 17.3028 28.0163 17.1993V16.3165C28.5364 16.4539 29.0841 16.4539 29.6042 16.3165V17.1993C29.6042 17.3028 29.6461 17.4021 29.7205 17.4753C29.795 17.5485 29.8959 17.5896 30.0012 17.5896C30.1065 17.5896 30.2075 17.5485 30.2819 17.4753C30.3564 17.4021 30.3982 17.3028 30.3982 17.1993V16.0105C31.2176 15.5774 31.8756 14.8991 32.2768 14.0739C32.5887 14.053 32.8844 13.9292 33.1159 13.7226C33.3475 13.5161 33.5014 13.2387 33.5528 12.9355C33.6042 12.6322 33.55 12.3209 33.3991 12.0516C33.2481 11.7824 33.0092 11.5712 32.721 11.4519Z" fill="#1EA49A"/>
<path id="Vector_4" d="M8.47749 10.986L9.52511 11.0787C9.57402 11.6282 9.64735 12.3564 9.74511 13.2631C9.84987 14.1629 9.92321 14.8018 9.96511 15.1796L10.0175 15.1693C10.5134 13.0673 10.8346 11.4222 10.9813 10.2338L12.3537 10.3472C11.9626 12.6209 11.3899 14.9563 10.6356 17.3536L9.62987 17.2712C9.3924 16.4606 9.12702 15.3994 8.83368 14.0874C8.53335 15.5024 8.24702 16.6324 7.97464 17.4773L6.96892 17.3949C6.37526 14.4824 5.97368 12.1194 5.76416 10.306L7.11559 10.4193C7.22735 11.5802 7.40192 13.167 7.6394 15.1796L7.69178 15.1693C8.09687 13.3352 8.35878 11.9408 8.47749 10.986Z" fill="#222222"/>
<path id="Vector_5" d="M34.0898 17.5288C34.1807 15.8802 34.226 14.4102 34.226 13.1189C34.226 11.8275 34.2226 10.9791 34.2156 10.5739C34.9838 10.2167 35.7835 10.0381 36.6146 10.0381C37.2292 10.0381 37.7426 10.2304 38.1546 10.6151C38.5737 10.9997 38.7832 11.5424 38.7832 12.243C38.7832 13.0536 38.2 13.8332 37.0337 14.582C37.6692 15.365 38.3187 16.2271 38.9822 17.1682L37.9765 17.8997C37.5365 17.2472 36.7473 16.1824 35.6089 14.7056C35.5879 15.7635 35.5565 16.756 35.5146 17.6834L34.0898 17.5288ZM35.6403 14.005C36.1571 13.7646 36.5971 13.4692 36.9603 13.1189C37.3235 12.7616 37.5051 12.4388 37.5051 12.1503C37.5051 11.8618 37.4178 11.6386 37.2432 11.4806C37.0756 11.3226 36.8521 11.2436 36.5727 11.2436C36.2933 11.2436 35.986 11.302 35.6508 11.4188C35.6508 12.5796 35.6473 13.4417 35.6403 14.005Z" fill="#222222"/>
<path id="Vector_6" d="M41.3174 15.4681V14.6747C40.4025 12.7719 39.8961 11.4016 39.7983 10.5636L41.1079 10.6872C41.2615 11.4566 41.5828 12.377 42.0717 13.4486C42.6513 12.2052 43.1018 11.0822 43.4231 10.0793L44.6383 10.1926C44.1215 11.642 43.4999 13.1154 42.7736 14.6129C42.7596 15.2311 42.7526 15.7738 42.7526 16.2408C42.7526 16.7079 42.7666 17.1785 42.7945 17.6524L41.4117 17.5082C41.3488 16.8694 41.3174 16.1893 41.3174 15.4681Z" fill="#222222"/>
</g>
</svg>
