<svg width="144" height="58" viewBox="0 0 144 58" fill="none" xmlns="http://www.w3.org/2000/svg">
<g id="logo_woory 1">
<path id="Vector" fill-rule="evenodd" clip-rule="evenodd" d="M142.727 18.5796C143.458 18.7724 143.893 19.512 143.697 20.2316L142.987 22.8373C142.79 23.5569 142.039 23.9839 141.308 23.7911L72.582 5.67958C72.117 5.55701 71.6274 5.55701 71.1623 5.67958L2.43662 23.7912C1.70501 23.9841 0.953008 23.557 0.756973 22.8374L0.0470705 20.2318C-0.148963 19.5121 0.285206 18.7724 1.01682 18.5797L71.2258 0.0771507C71.2432 0.0725491 71.2608 0.0683005 71.2782 0.0644008C71.6628 -0.0213986 72.0808 -0.0214677 72.4653 0.0641985C72.483 0.0681273 72.5006 0.072411 72.5183 0.0770541L142.727 18.5796Z" fill="#222222"/>
<path id="Vector_2" d="M56.2374 35.8208C55.8306 35.8208 55.4328 35.7021 55.0946 35.4798C54.7563 35.2575 54.4925 34.9415 54.3369 34.5718C54.1812 34.2021 54.1405 33.7953 54.2199 33.4029C54.2992 33.0104 54.4951 32.6498 54.7829 32.3668C55.0705 32.0839 55.437 31.8912 55.8361 31.8131C56.2352 31.735 56.6488 31.7751 57.0247 31.9283C57.4005 32.0814 57.7218 32.3408 57.9478 32.6734C58.174 33.0062 58.2945 33.3974 58.2945 33.7976C58.2945 34.3341 58.0779 34.8487 57.6921 35.2281C57.3063 35.6077 56.7831 35.8208 56.2374 35.8208ZM66.3188 29.4462C65.7683 26.317 64.11 23.4803 61.6375 21.4377C59.165 19.3953 56.0377 18.2789 52.8088 18.2859C43.346 18.2859 40.636 24.5904 38.8463 28.7623C38.4834 29.9427 37.8666 31.0326 37.0374 31.9577C36.7897 32.0998 36.5936 32.3146 36.4765 32.572C36.3594 32.8295 36.3273 33.1164 36.3847 33.3928C36.4421 33.669 36.5861 33.9207 36.7963 34.1124C37.0067 34.304 37.2727 34.426 37.5572 34.4612C40.9471 34.7415 44.3566 34.2332 47.5096 32.9775C47.3357 33.3566 47.2849 33.7793 47.3638 34.188C47.443 34.5967 47.6483 34.9714 47.9518 35.2612C48.2553 35.551 48.6422 35.7418 49.0598 35.8075C49.4775 35.8731 49.9055 35.8107 50.2858 35.6285C50.6661 35.4462 50.9799 35.1531 51.1848 34.7892C51.3895 34.4252 51.4753 34.008 51.4303 33.5943C51.3851 33.1806 51.2117 32.7906 50.9331 32.4776C50.6547 32.1645 50.2849 31.9433 49.874 31.8444C52.5683 30.3599 54.8907 28.3012 56.6708 25.8192C56.7838 25.6757 56.8662 25.5112 56.913 25.3356C56.9597 25.1601 56.9702 24.9771 56.9433 24.7976C56.9165 24.6179 56.8532 24.4455 56.757 24.2907C56.6609 24.1357 56.5339 24.0015 56.3839 23.896C56.2337 23.7905 56.0635 23.7158 55.8833 23.6766C55.7031 23.6373 55.5167 23.6342 55.3354 23.6674C55.154 23.7006 54.9812 23.7695 54.8276 23.8698C54.6738 23.9703 54.5423 24.1002 54.4408 24.2518C52.8416 26.4663 50.7537 28.2966 48.3337 29.6056C45.9137 30.9145 43.2241 31.6684 40.466 31.8107C40.7773 31.1997 41.0667 30.5212 41.3739 29.8104C43.0607 25.8772 45.1604 20.9836 52.8088 20.9836C55.5186 20.9773 58.1344 21.96 60.1495 23.7417C62.1647 25.5234 63.436 27.977 63.7172 30.6278C63.7486 30.9176 63.8746 31.1896 64.0763 31.4031C64.2781 31.6166 64.5447 31.76 64.8363 31.8121C65.336 31.9081 65.7816 32.1831 66.0871 32.5837C66.3926 32.9843 66.5361 33.4821 66.4902 33.9807C66.4441 34.4794 66.2117 34.9437 65.8377 35.2834C65.4638 35.6233 64.975 35.8149 64.466 35.8208C64.3501 35.8176 64.2345 35.8054 64.1204 35.7844C63.8006 35.7271 63.4705 35.784 63.1894 35.945C62.9086 36.1061 62.6955 36.3605 62.5885 36.6625C61.3323 40.1654 57.1041 43.9138 52.8088 43.9138C48.8317 43.9138 45.1288 40.8344 43.5297 37.7915C43.3624 37.4738 43.0737 37.2345 42.727 37.1262C42.3804 37.0179 42.004 37.0496 41.6811 37.2142C41.3581 37.3787 41.1148 37.6626 41.0047 38.0036C40.8947 38.3446 40.9268 38.7147 41.0941 39.0324C42.5154 41.6408 44.6805 43.7842 47.3231 45.1993V49.3092C47.3231 49.6669 47.4677 50.01 47.7248 50.2629C47.9821 50.5158 48.3308 50.658 48.6945 50.658C49.0582 50.658 49.4071 50.5158 49.6643 50.2629C49.9216 50.01 50.066 49.6669 50.066 49.3092V46.2581C51.8627 46.7329 53.755 46.7329 55.5517 46.2581V49.3092C55.5517 49.6669 55.6962 50.01 55.9534 50.2629C56.2107 50.5158 56.5594 50.658 56.9231 50.658C57.2868 50.658 57.6357 50.5158 57.8929 50.2629C58.1501 50.01 58.2945 49.6669 58.2945 49.3092V45.2006C61.1254 43.7038 63.3983 41.3597 64.7841 38.5077C65.8618 38.4354 66.8833 38.0077 67.6831 37.2937C68.483 36.5798 69.0147 35.6213 69.1922 34.5734C69.3697 33.5254 69.1826 32.4493 68.6612 31.5188C68.1398 30.5884 67.3144 29.8581 66.3188 29.4462Z" fill="#1EA49A"/>
<path id="Vector_3" d="M85.8314 38.2937C85.4921 38.2937 85.1606 38.1948 84.8785 38.0095C84.5966 37.8243 84.3767 37.5608 84.2468 37.2528C84.1171 36.9447 84.0831 36.6057 84.1493 36.2786C84.2154 35.9515 84.3788 35.6512 84.6186 35.4154C84.8585 35.1796 85.1641 35.019 85.4968 34.9539C85.8295 34.8889 86.1743 34.9223 86.4876 35.0499C86.801 35.1775 87.0688 35.3935 87.2573 35.6709C87.4458 35.9482 87.5464 36.2741 87.5464 36.6076C87.5464 37.0548 87.3656 37.4836 87.044 37.7999C86.7224 38.116 86.2862 38.2937 85.8314 38.2937ZM94.2361 32.9814C93.777 30.3738 92.3945 28.0099 90.3333 26.3078C88.2721 24.6058 85.6649 23.6754 82.9731 23.6812C75.0841 23.6812 72.8248 28.9349 71.3327 32.4115C71.0301 33.3952 70.5158 34.3034 69.8246 35.0744C69.6182 35.1928 69.4546 35.3718 69.357 35.5863C69.2595 35.8009 69.2326 36.04 69.2804 36.2703C69.3283 36.5005 69.4483 36.7103 69.6236 36.87C69.799 37.0297 70.0209 37.1312 70.258 37.1606C73.0841 37.3943 75.9264 36.9707 78.5551 35.9242C78.4102 36.2402 78.3677 36.5924 78.4336 36.933C78.4996 37.2735 78.6708 37.5858 78.9238 37.8274C79.1767 38.0688 79.4992 38.2277 79.8474 38.2825C80.1956 38.3372 80.5526 38.2852 80.8696 38.1333C81.1866 37.9815 81.4483 37.7373 81.6191 37.4339C81.7897 37.1306 81.8612 36.783 81.8237 36.4382C81.7861 36.0934 81.6414 35.7685 81.4092 35.5076C81.1772 35.2466 80.8687 35.0624 80.5263 34.98C82.7724 33.743 84.7086 32.0274 86.1926 29.9589C86.2868 29.8393 86.3556 29.7024 86.3945 29.556C86.4336 29.4097 86.4422 29.2573 86.4199 29.1075C86.3975 28.958 86.3447 28.8143 86.2645 28.6852C86.1844 28.5561 86.0785 28.4442 85.9533 28.3562C85.8282 28.2684 85.6863 28.2061 85.5361 28.1735C85.386 28.1407 85.2306 28.1381 85.0793 28.1658C84.928 28.1934 84.784 28.2509 84.6559 28.3345C84.5279 28.4183 84.4181 28.5265 84.3335 28.6529C83.0002 30.4983 81.2597 32.0235 79.2422 33.1143C77.2247 34.2051 74.9823 34.8334 72.683 34.9519C72.9426 34.4427 73.1838 33.8773 73.4399 33.2849C74.8461 30.0072 76.5966 25.9293 82.9731 25.9293C85.2321 25.924 87.4128 26.743 89.0928 28.2277C90.7728 29.7124 91.8326 31.7572 92.0671 33.9661C92.0933 34.2076 92.1984 34.4342 92.3665 34.6122C92.5347 34.7901 92.757 34.9097 93.0001 34.953C93.4166 35.0331 93.7881 35.2622 94.0428 35.596C94.2975 35.9298 94.4172 36.3447 94.3788 36.7603C94.3404 37.1758 94.1466 37.5626 93.8349 37.8459C93.5233 38.1291 93.1157 38.2887 92.6914 38.2937C92.5947 38.291 92.4983 38.2809 92.4033 38.2633C92.1365 38.2154 91.8613 38.2629 91.6272 38.3971C91.393 38.5313 91.2153 38.7434 91.1262 38.9951C90.0788 41.9141 86.554 45.0379 82.9731 45.0379C79.6574 45.0379 76.5703 42.4717 75.2372 39.9359C75.0978 39.6711 74.857 39.4717 74.568 39.3815C74.2789 39.2913 73.9652 39.3176 73.696 39.4547C73.4267 39.5919 73.2239 39.8285 73.1321 40.1127C73.0404 40.3969 73.0671 40.7053 73.2066 40.9699C74.3916 43.1437 76.1966 44.9298 78.3996 46.109V49.5339C78.3996 49.832 78.5202 50.118 78.7345 50.3287C78.949 50.5395 79.2398 50.6579 79.543 50.6579C79.8462 50.6579 80.1371 50.5395 80.3514 50.3287C80.5659 50.118 80.6863 49.832 80.6863 49.5339V46.9914C82.1842 47.387 83.7618 47.387 85.2596 46.9914V49.5339C85.2596 49.832 85.3802 50.118 85.5946 50.3287C85.809 50.5395 86.0998 50.6579 86.403 50.6579C86.7062 50.6579 86.9971 50.5395 87.2115 50.3287C87.426 50.118 87.5464 49.832 87.5464 49.5339V46.1102C89.9063 44.8628 91.8012 42.9094 92.9567 40.5327C93.8551 40.4724 94.7066 40.1159 95.3734 39.521C96.0403 38.9261 96.4836 38.1274 96.6315 37.2541C96.7795 36.3807 96.6234 35.484 96.1888 34.7086C95.7541 33.9333 95.066 33.3248 94.2361 32.9814Z" fill="#1EA49A"/>
<path id="Vector_4" d="M24.415 31.6396L27.4321 31.9067C27.573 33.4893 27.7842 35.5863 28.0657 38.1977C28.3674 40.7892 28.5786 42.629 28.6993 43.7171L28.8502 43.6874C30.2783 37.6339 31.2036 32.8958 31.626 29.4734L35.5784 29.7998C34.4521 36.348 32.8026 43.0741 30.6303 49.9784L27.7338 49.741C27.0499 47.4066 26.2856 44.3501 25.4408 40.5716C24.5759 44.6469 23.7512 47.9012 22.9668 50.3345L20.0703 50.0971C18.3605 41.7091 17.204 34.9038 16.6006 29.6811L20.4927 30.0075C20.8146 33.3509 21.3173 37.9208 22.0013 43.7171L22.1521 43.6874C23.3188 38.4054 24.0731 34.3895 24.415 31.6396Z" fill="#222222"/>
<path id="Vector_5" d="M98.1787 50.483C98.4402 45.7351 98.5709 41.5015 98.5709 37.7823C98.5709 34.0632 98.5609 31.6199 98.5408 30.4527C100.753 29.424 103.056 28.9097 105.45 28.9097C107.22 28.9097 108.699 29.4636 109.885 30.5714C111.092 31.6792 111.696 33.2421 111.696 35.26C111.696 37.5944 110.016 39.8397 106.657 41.9961C108.487 44.2513 110.358 46.7341 112.269 49.4444L109.372 51.5513C108.105 49.6719 105.832 46.6055 102.554 42.3522C102.493 45.3988 102.403 48.2574 102.282 50.9281L98.1787 50.483ZM102.644 40.3343C104.132 39.642 105.4 38.7912 106.446 37.7823C107.492 36.7536 108.015 35.8238 108.015 34.9929C108.015 34.162 107.763 33.519 107.26 33.0641C106.778 32.6091 106.134 32.3816 105.329 32.3816C104.525 32.3816 103.64 32.5498 102.674 32.886C102.674 36.2294 102.664 38.7121 102.644 40.3343Z" fill="#222222"/>
<path id="Vector_6" d="M118.994 44.548V42.2631C116.359 36.7832 114.901 32.8365 114.619 30.423L118.391 30.7791C118.833 32.9948 119.758 35.6457 121.166 38.7319C122.836 35.1511 124.133 31.9166 125.058 29.0283L128.558 29.3547C127.07 33.529 125.28 37.7724 123.188 42.0851C123.148 43.8655 123.127 45.4284 123.127 46.7736C123.127 48.1188 123.168 49.474 123.248 50.839L119.266 50.4236C119.085 48.5838 118.994 46.6252 118.994 44.548Z" fill="#222222"/>
</g>
</svg>
