<svg width="80" height="80" viewBox="0 0 80 80" fill="none" xmlns="http://www.w3.org/2000/svg">
<g id="logo_square_exta_small_16">
<rect id="bg_16" width="80" height="80" fill="#FDFDFD"/>
<path id="Vector" d="M46.2557 42.7344C45.5137 42.7344 44.7884 42.5145 44.1714 42.1024C43.5545 41.6904 43.0736 41.1047 42.7897 40.4195C42.5057 39.7342 42.4314 38.9802 42.5762 38.2528C42.721 37.5254 43.0783 36.8572 43.6029 36.3328C44.1276 35.8083 44.7961 35.4512 45.5238 35.3065C46.2515 35.1618 47.0058 35.236 47.6914 35.5199C48.3769 35.8037 48.9628 36.2843 49.375 36.901C49.7872 37.5177 50.0073 38.2427 50.0073 38.9844C50.0073 39.979 49.612 40.9328 48.9085 41.6361C48.2049 42.3393 47.2507 42.7344 46.2557 42.7344ZM64.6409 30.9194C63.6368 25.1197 60.6127 19.8619 56.1037 16.0763C51.5947 12.2907 45.8915 10.2214 40.0031 10.2344C22.7458 10.2344 17.8038 21.9194 14.5399 29.6519C13.8781 31.8398 12.753 33.8597 11.241 35.5744C10.7893 35.8377 10.4316 36.2359 10.2181 36.713C10.0045 37.1901 9.94596 37.7221 10.0506 38.2341C10.1552 38.7462 10.4177 39.2127 10.8013 39.5679C11.1848 39.9231 11.6701 40.1492 12.1889 40.2144C18.371 40.734 24.5887 39.792 30.339 37.4644C30.0217 38.1672 29.9289 38.9507 30.0732 39.7081C30.2175 40.4656 30.5918 41.1602 31.1452 41.6973C31.6986 42.2344 32.4043 42.5879 33.1659 42.7097C33.9276 42.8315 34.7084 42.7157 35.4018 42.3779C36.0952 42.0402 36.6677 41.497 37.0411 40.8224C37.4146 40.1477 37.5709 39.3744 37.4888 38.6077C37.4067 37.841 37.0902 37.1183 36.5824 36.5379C36.0745 35.9576 35.4001 35.5478 34.6508 35.3644C39.5644 32.613 43.7997 28.7973 47.046 24.1969C47.252 23.9309 47.4022 23.6262 47.4876 23.3008C47.573 22.9754 47.5918 22.6362 47.543 22.3034C47.4941 21.9706 47.3785 21.651 47.2032 21.3639C47.0279 21.0768 46.7964 20.828 46.5226 20.6324C46.2488 20.4369 45.9384 20.2985 45.6098 20.2257C45.2813 20.1529 44.9414 20.1471 44.6106 20.2087C44.2798 20.2703 43.9648 20.3979 43.6845 20.5841C43.4042 20.7702 43.1643 21.011 42.9793 21.2919C40.0627 25.3965 36.2553 28.7888 31.8419 31.2149C27.4285 33.641 22.5235 35.0382 17.4936 35.3019C18.0614 34.1694 18.5891 32.9119 19.1493 31.5944C22.2256 24.3044 26.0547 15.2344 40.0031 15.2344C44.9447 15.2226 49.7149 17.0442 53.39 20.3464C57.0651 23.6486 59.3835 28.1965 59.8964 33.1094C59.9537 33.6466 60.1835 34.1507 60.5514 34.5464C60.9193 34.9421 61.4055 35.2081 61.9373 35.3044C62.8485 35.4826 63.6612 35.9921 64.2183 36.7346C64.7755 37.4771 65.0373 38.3997 64.9533 39.324C64.8693 40.2482 64.4454 41.1086 63.7636 41.7385C63.0817 42.3685 62.1904 42.7233 61.262 42.7344C61.0504 42.7285 60.8397 42.706 60.6317 42.6669C60.0484 42.5606 59.4463 42.6662 58.934 42.9646C58.4217 43.2631 58.033 43.7347 57.838 44.2944C55.5471 50.7869 47.8363 57.7344 40.0031 57.7344C32.75 57.7344 25.9972 52.0269 23.081 46.3869C22.7758 45.7981 22.2492 45.3546 21.617 45.1539C20.9847 44.9533 20.2986 45.0119 19.7096 45.3169C19.1205 45.6219 18.6768 46.1483 18.4761 46.7803C18.2753 47.4123 18.334 48.0981 18.6391 48.6869C21.2312 53.5215 25.1794 57.4941 29.9989 60.1169V67.7344C29.9989 68.3974 30.2624 69.0333 30.7314 69.5021C31.2005 69.971 31.8366 70.2344 32.4999 70.2344C33.1632 70.2344 33.7994 69.971 34.2684 69.5021C34.7375 69.0333 35.001 68.3974 35.001 67.7344V62.0794C38.2776 62.9594 41.7285 62.9594 45.0052 62.0794V67.7344C45.0052 68.3974 45.2687 69.0333 45.7377 69.5021C46.2067 69.971 46.8429 70.2344 47.5062 70.2344C48.1695 70.2344 48.8057 69.971 49.2747 69.5021C49.7438 69.0333 50.0073 68.3974 50.0073 67.7344V60.1194C55.1697 57.3452 59.3148 53.0005 61.8422 47.7144C63.8075 47.5804 65.6702 46.7876 67.129 45.4643C68.5877 44.1411 69.5574 42.3647 69.881 40.4224C70.2047 38.48 69.8635 36.4854 68.9126 34.7609C67.9617 33.0365 66.4566 31.683 64.6409 30.9194Z" fill="#1EA49A"/>
</g>
</svg>
