<svg width="30" height="30" viewBox="0 0 30 30" fill="none" xmlns="http://www.w3.org/2000/svg">
<g id="ic_send">
<circle id="bg_32" cx="15" cy="15" r="15" fill="current"/>
<path id="Vector" d="M21.5271 11.2978L17.6653 7.14746C16.9472 6.41093 15.9927 6 15 6C14.0073 6 13.0528 6.41093 12.3347 7.14746L8.4729 11.2978C8.17001 11.6235 7.9999 12.0651 8 12.5256C8.0001 12.9861 8.1704 13.4277 8.47343 13.7532C8.77647 14.0787 9.18742 14.2615 9.61587 14.2614C10.0443 14.2613 10.4552 14.0783 10.7581 13.7526L13.3846 10.9298V22.2639C13.3846 22.7244 13.5548 23.1659 13.8578 23.4915C14.1607 23.8171 14.5716 24 15 24C15.4284 24 15.8393 23.8171 16.1422 23.4915C16.4452 23.1659 16.6154 22.7244 16.6154 22.2639V10.9298L19.2419 13.7526C19.3919 13.9139 19.57 14.0418 19.7659 14.1291C19.9619 14.2164 20.172 14.2614 20.3841 14.2614C20.5963 14.2615 20.8064 14.2166 21.0024 14.1294C21.1984 14.0422 21.3765 13.9144 21.5266 13.7532C21.6766 13.592 21.7956 13.4006 21.8769 13.19C21.9581 12.9794 22 12.7536 22 12.5256C22.0001 12.2976 21.9583 12.0718 21.8772 11.8612C21.796 11.6505 21.6771 11.4591 21.5271 11.2978Z" fill="#FDFDFD"/>
</g>
</svg>
