<svg width="current" height="current" viewBox="0 0 20 20" fill="none" xmlns="http://www.w3.org/2000/svg">
<g id="name=heart_num, size=small_20">
<circle id="Ellipse 26" cx="10" cy="10" r="10" fill="#888888"/>
<path id="ic_heart_pressed" d="M13.4361 4.16675C12.7326 4.17782 12.0445 4.37649 11.4411 4.7427C10.8378 5.10891 10.3407 5.62969 10 6.25245C9.65929 5.62969 9.16217 5.10891 8.55886 4.7427C7.95554 4.37649 7.26738 4.17782 6.56389 4.16675C5.44243 4.21604 4.38583 4.71235 3.62494 5.54725C2.86404 6.38215 2.4607 7.48777 2.50302 8.62256C2.50302 11.4964 5.49307 14.6351 8.00081 16.7631C8.56072 17.2391 9.26864 17.5001 10 17.5001C10.7314 17.5001 11.4393 17.2391 11.9992 16.7631C14.5069 14.6351 17.497 11.4964 17.497 8.62256C17.5393 7.48777 17.136 6.38215 16.3751 5.54725C15.6142 4.71235 14.5576 4.21604 13.4361 4.16675Z" fill="#FDFDFD"/>
</g>
</svg>
