<svg width="current" height="current" viewBox="0 0 24 24" fill="none" xmlns="http://www.w3.org/2000/svg">
<g id="name=sad, size=medium_24">
<circle id="Ellipse 34" cx="12" cy="12" r="12" fill="#FDFDFD"/>
<path id="Vector" d="M12 24C9.62662 24 7.30655 23.2962 5.33316 21.9776C3.35977 20.6591 1.8217 18.7849 0.913445 16.5922C0.00519371 14.3995 -0.232446 11.9867 0.230576 9.65892C0.693599 7.33114 1.83649 5.19295 3.51472 3.51472C5.19295 1.83649 7.33114 0.693599 9.65892 0.230576C11.9867 -0.232446 14.3995 0.00519371 16.5922 0.913445C18.7849 1.8217 20.6591 3.35977 21.9776 5.33316C23.2962 7.30655 24 9.62662 24 12C23.9966 15.1815 22.7312 18.2318 20.4815 20.4815C18.2318 22.7312 15.1815 23.9966 12 24ZM12 2C10.0222 2 8.08879 2.58649 6.4443 3.6853C4.79981 4.78412 3.51808 6.3459 2.7612 8.17317C2.00433 10.0004 1.80629 12.0111 2.19215 13.9509C2.578 15.8907 3.53041 17.6725 4.92893 19.0711C6.32746 20.4696 8.10929 21.422 10.0491 21.8079C11.9889 22.1937 13.9996 21.9957 15.8268 21.2388C17.6541 20.4819 19.2159 19.2002 20.3147 17.5557C21.4135 15.9112 22 13.9778 22 12C21.9971 9.34873 20.9426 6.80688 19.0679 4.93215C17.1931 3.05741 14.6513 2.00291 12 2ZM15.01 18C15.1646 17.9965 15.3164 17.9579 15.4539 17.8871C15.5914 17.8164 15.7111 17.7153 15.8038 17.5916C15.8966 17.4678 15.96 17.3246 15.9893 17.1728C16.0186 17.0209 16.013 16.8644 15.973 16.715C16 16.5 15.3878 15.3878 14.5 14.5C14 14 13.0465 13.1108 11.9399 13.0672C10.8346 13.115 9.93295 14.0672 9.43295 14.5672C8.37691 15.6232 8.01499 16.8248 8.041 16.715C8.07689 16.5635 7.98771 17.0218 8.01499 17.1752C8.04226 17.3285 8.10497 17.4733 8.19811 17.5981C8.29125 17.7229 8.41225 17.8242 8.55147 17.894C8.69068 17.9638 8.84427 18.0001 9 18C9 18 10.475 15.0025 12 15C13.528 14.9975 15.01 18 15.01 18Z" fill="#666666"/>
<path id="Vector_2" d="M8.18229 10.5C9.388 10.5 9.7254 9.59497 9.819 9.33949C10.017 8.79918 10.1347 8.13356 9.7254 7.69829C9.31614 7.26301 8.72786 7.59873 8.18229 8.17899C7.63672 8.75924 7.09114 8.75924 6.54557 8.75924C6.54557 8.75924 6 8.72392 6 9.33949C6 10.5 6.97657 10.5 8.18229 10.5Z" fill="#666666"/>
<path id="Vector_3" d="M15.8177 10.5C14.612 10.5 14.2746 9.59497 14.181 9.33949C13.983 8.79918 13.8653 8.13356 14.2746 7.69829C14.6839 7.26301 15.2721 7.59873 15.8177 8.17899C16.3633 8.75924 16.9089 8.75924 17.4544 8.75924C17.4544 8.75924 18 8.72392 18 9.33949C18 10.5 17.0234 10.5 15.8177 10.5Z" fill="#666666"/>
<path id="Vector_4" d="M20.3885 18.2254C19.8843 18.3894 19.2936 18.2191 18.7462 17.7517C18.1987 17.2842 17.7392 16.558 17.4685 15.7322C17.2035 14.9223 17.1616 13.5078 17.3388 11.5284C17.3612 11.2975 17.4239 11.0948 17.5218 10.9372C17.6196 10.7795 17.7498 10.6714 17.9015 10.6218C18.0532 10.5721 18.2221 10.5824 18.3942 10.6517C18.5663 10.7211 18.7366 10.8475 18.8912 11.0205C20.2045 12.5122 21.0052 13.6785 21.2702 14.4884C21.5399 15.3145 21.5986 16.1719 21.4333 16.8725C21.268 17.5731 20.8922 18.0596 20.3885 18.2254Z" fill="#55A3FD"/>
<path id="Vector_5" d="M6 19C5.46973 18.9991 4.96133 18.6535 4.58637 18.0391C4.21141 17.4246 4.00053 16.5914 4 15.7225C4 14.8703 4.4 13.5128 5.184 11.6867C5.27709 11.4742 5.39971 11.3011 5.54172 11.1817C5.68373 11.0623 5.84105 11 6.00067 11C6.16028 11 6.3176 11.0623 6.45961 11.1817C6.60163 11.3011 6.72425 11.4742 6.81733 11.6867C7.60167 13.5128 8 14.8703 8 15.7225C7.99947 16.5914 7.78859 17.4246 7.41363 18.0391C7.03867 18.6535 6.53027 18.9991 6 19Z" fill="#55A3FD"/>
</g>
</svg>
