<svg width="40" height="40" viewBox="0 0 40 40" fill="none" xmlns="http://www.w3.org/2000/svg">
<g id="ic_add">
<circle id="Ellipse 42" cx="20" cy="20" r="20" fill="#EEEEEE"/>
<path id="ic_add_03" d="M28.3337 20C28.3337 20.442 28.1581 20.866 27.8455 21.1785C27.5329 21.4911 27.109 21.6667 26.667 21.6667H21.667V26.6667C21.667 27.1087 21.4914 27.5326 21.1788 27.8452C20.8663 28.1578 20.4424 28.3334 20.0003 28.3334C19.5583 28.3334 19.1344 28.1578 18.8218 27.8452C18.5093 27.5326 18.3337 27.1087 18.3337 26.6667V21.6667H13.3337C12.8916 21.6667 12.4677 21.4911 12.1551 21.1785C11.8426 20.866 11.667 20.442 11.667 20C11.667 19.558 11.8426 19.1341 12.1551 18.8215C12.4677 18.5089 12.8916 18.3334 13.3337 18.3334H18.3337V13.3334C18.3337 12.8913 18.5093 12.4674 18.8218 12.1548C19.1344 11.8423 19.5583 11.6667 20.0003 11.6667C20.4424 11.6667 20.8663 11.8423 21.1788 12.1548C21.4914 12.4674 21.667 12.8913 21.667 13.3334V18.3334H26.667C27.109 18.3334 27.5329 18.5089 27.8455 18.8215C28.1581 19.1341 28.3337 19.558 28.3337 20Z" fill="#888888"/>
</g>
</svg>
