<svg width="40" height="40" viewBox="0 0 40 40" fill="none" xmlns="http://www.w3.org/2000/svg">
<g id="fi-rr-man-head" clip-path="url(#clip0_14_70)">
<path id="Vector" d="M24.1667 21.6674C23.6722 21.6674 23.1889 21.5208 22.7778 21.2461C22.3666 20.9714 22.0462 20.5809 21.857 20.1241C21.6678 19.6673 21.6183 19.1646 21.7147 18.6797C21.8112 18.1947 22.0493 17.7492 22.3989 17.3996C22.7485 17.05 23.194 16.8119 23.679 16.7154C24.1639 16.619 24.6666 16.6685 25.1234 16.8577C25.5802 17.0469 25.9707 17.3673 26.2454 17.7785C26.5201 18.1896 26.6667 18.6729 26.6667 19.1674C26.6667 19.8304 26.4033 20.4663 25.9344 20.9351C25.4656 21.404 24.8297 21.6674 24.1667 21.6674ZM36.4183 13.7907C35.7492 9.92421 33.734 6.41901 30.7293 3.89529C27.7245 1.37158 23.924 -0.00798086 20 0.000712221C8.50001 0.000712221 5.20668 7.79071 3.03168 12.9457C2.59065 14.4043 1.8409 15.7509 0.833344 16.894C0.532359 17.0696 0.293961 17.335 0.151665 17.6531C0.00937023 17.9712 -0.0296652 18.3258 0.0400474 18.6672C0.10976 19.0086 0.284715 19.3195 0.540313 19.5564C0.795912 19.7932 1.1193 19.9439 1.46501 19.9874C5.58468 20.3338 9.72806 19.7058 13.56 18.154C13.3486 18.6226 13.2867 19.1449 13.3829 19.6499C13.479 20.1548 13.7285 20.6179 14.0973 20.976C14.4661 21.334 14.9363 21.5697 15.4438 21.6509C15.9514 21.7321 16.4717 21.6549 16.9338 21.4297C17.3959 21.2046 17.7773 20.8425 18.0262 20.3927C18.2751 19.9429 18.3793 19.4274 18.3246 18.9163C18.2699 18.4051 18.0589 17.9233 17.7205 17.5364C17.3821 17.1495 16.9326 16.8763 16.4333 16.754C19.7077 14.9198 22.53 12.3759 24.6933 9.30905C24.8306 9.13173 24.9307 8.92853 24.9876 8.71162C25.0445 8.49471 25.0571 8.26855 25.0245 8.04668C24.9919 7.82481 24.9149 7.61179 24.7981 7.42038C24.6813 7.22897 24.527 7.06311 24.3445 6.93273C24.1621 6.80234 23.9552 6.71012 23.7363 6.66157C23.5173 6.61303 23.2909 6.60917 23.0704 6.65022C22.85 6.69127 22.64 6.77638 22.4533 6.90047C22.2665 7.02456 22.1066 7.18507 21.9833 7.37238C20.0397 10.1088 17.5025 12.3703 14.5615 13.9877C11.6205 15.6051 8.35183 16.5366 5.00001 16.7124C5.37834 15.9574 5.73001 15.119 6.10334 14.2407C8.15334 9.38071 10.705 3.33405 20 3.33405C23.2931 3.32617 26.4719 4.54055 28.9209 6.74203C31.3699 8.9435 32.9149 11.9754 33.2567 15.2507C33.2948 15.6088 33.448 15.9449 33.6931 16.2087C33.9383 16.4725 34.2623 16.6498 34.6167 16.714C35.2239 16.8328 35.7655 17.1725 36.1368 17.6675C36.508 18.1625 36.6825 18.7776 36.6266 19.3937C36.5706 20.0099 36.2881 20.5835 35.8337 21.0035C35.3793 21.4234 34.7854 21.66 34.1667 21.6674C34.0257 21.6635 33.8853 21.6484 33.7467 21.6224C33.358 21.5515 32.9567 21.6219 32.6153 21.8209C32.274 22.0198 32.0149 22.3342 31.885 22.7074C30.3583 27.0357 25.22 31.6674 20 31.6674C15.1667 31.6674 10.6667 27.8624 8.72334 24.1024C8.52001 23.7099 8.16908 23.4142 7.74775 23.2804C7.32642 23.1466 6.8692 23.1857 6.47668 23.389C6.08416 23.5924 5.78849 23.9433 5.65471 24.3646C5.52094 24.786 5.56001 25.2432 5.76334 25.6357C7.4907 28.8588 10.1217 31.5072 13.3333 33.2557V38.334C13.3333 38.7761 13.5089 39.2 13.8215 39.5126C14.1341 39.8251 14.558 40.0007 15 40.0007C15.442 40.0007 15.866 39.8251 16.1785 39.5126C16.4911 39.2 16.6667 38.7761 16.6667 38.334V34.5641C18.8502 35.1507 21.1498 35.1507 23.3333 34.5641V38.334C23.3333 38.7761 23.5089 39.2 23.8215 39.5126C24.1341 39.8251 24.558 40.0007 25 40.0007C25.442 40.0007 25.866 39.8251 26.1785 39.5126C26.4911 39.2 26.6667 38.7761 26.6667 38.334V33.2574C30.1069 31.4079 32.8691 28.5114 34.5533 24.9874C35.863 24.898 37.1043 24.3695 38.0764 23.4873C39.0485 22.6052 39.6946 21.4209 39.9103 20.126C40.126 18.8311 39.8986 17.5014 39.2649 16.3517C38.6313 15.2021 37.6283 14.2998 36.4183 13.7907Z" fill="#FDFDFD"/>
</g>
<defs>
<clipPath id="clip0_14_70">
<rect width="40" height="40" fill="white"/>
</clipPath>
</defs>
</svg>
