<svg width="80" height="80" viewBox="0 0 80 80" fill="none" xmlns="http://www.w3.org/2000/svg">
<g id="profile_80_mypage 2" clip-path="url(#clip0_795_12136)">
<path id="Vector" d="M40 80C62.0914 80 80 62.0914 80 40C80 17.9086 62.0914 0 40 0C17.9086 0 0 17.9086 0 40C0 62.0914 17.9086 80 40 80Z" fill="#1EA49A"/>
<g id="Clip path group">
<mask id="mask0_795_12136" style="mask-type:luminance" maskUnits="userSpaceOnUse" x="8" y="9" width="64" height="65">
<g id="clip0_510_6274">
<path id="Vector_2" d="M72 9.6001H8V73.6001H72V9.6001Z" fill="white"/>
</g>
</mask>
<g mask="url(#mask0_795_12136)">
<g id="Group">
<path id="Vector_3" d="M46.6673 44.2678C45.8761 44.2678 45.1028 44.0332 44.445 43.5937C43.7872 43.1542 43.2745 42.5294 42.9718 41.7985C42.669 41.0676 42.5898 40.2634 42.7441 39.4874C42.8985 38.7115 43.2794 37.9988 43.8388 37.4394C44.3983 36.88 45.111 36.499 45.8869 36.3447C46.6628 36.1903 47.4671 36.2695 48.198 36.5723C48.9289 36.875 49.5536 37.3877 49.9932 38.0455C50.4327 38.7033 50.6673 39.4767 50.6673 40.2678C50.6673 41.3287 50.2458 42.3461 49.4957 43.0962C48.7456 43.8464 47.7281 44.2678 46.6673 44.2678ZM66.2699 31.6651C65.1993 25.4787 61.975 19.8704 57.1674 15.8325C52.3599 11.7945 46.2789 9.58723 40.0006 9.60114C21.6006 9.60114 16.3313 22.0651 12.8513 30.3131C12.1456 32.6469 10.946 34.8014 9.33394 36.6305C8.85236 36.9113 8.47092 37.3361 8.24325 37.845C8.01558 38.3538 7.95312 38.9213 8.06466 39.4675C8.1762 40.0137 8.45613 40.5113 8.86509 40.8902C9.27405 41.269 9.79147 41.5102 10.3446 41.5798C16.9361 42.1341 23.5655 41.1292 29.6966 38.6465C29.3583 39.3961 29.2594 40.2318 29.4132 41.0398C29.567 41.8477 29.9661 42.5886 30.5562 43.1615C31.1463 43.7344 31.8986 44.1115 32.7107 44.2415C33.5229 44.3714 34.3553 44.2478 35.0946 43.8876C35.834 43.5273 36.4443 42.9479 36.8425 42.2283C37.2407 41.5087 37.4074 40.6838 37.3199 39.866C37.2324 39.0482 36.8949 38.2773 36.3534 37.6582C35.8119 37.0392 35.0928 36.6021 34.2939 36.4065C39.5329 33.4716 44.0486 29.4015 47.5099 24.4945C47.7296 24.2108 47.8897 23.8856 47.9808 23.5386C48.0718 23.1915 48.0919 22.8297 48.0398 22.4747C47.9877 22.1197 47.8645 21.7789 47.6775 21.4726C47.4906 21.1664 47.2438 20.901 46.9519 20.6924C46.6599 20.4837 46.3289 20.3362 45.9786 20.2585C45.6283 20.1808 45.266 20.1747 44.9132 20.2403C44.5605 20.306 44.2247 20.4422 43.9258 20.6407C43.6269 20.8393 43.3712 21.0961 43.1739 21.3958C40.0642 25.7741 36.0046 29.3925 31.299 31.9803C26.5934 34.5682 21.3635 36.0585 16.0006 36.3398C16.6059 35.1318 17.1686 33.7905 17.7659 32.3851C21.0459 24.6091 25.1286 14.9345 40.0006 14.9345C45.2695 14.9219 50.3556 16.8649 54.274 20.3872C58.1925 23.9096 60.6645 28.7607 61.2113 34.0011C61.2723 34.5741 61.5173 35.1119 61.9096 35.534C62.3019 35.956 62.8203 36.2397 63.3873 36.3425C64.3588 36.5325 65.2254 37.076 65.8194 37.868C66.4134 38.66 66.6926 39.6441 66.6031 40.63C66.5135 41.6159 66.0615 42.5336 65.3345 43.2055C64.6075 43.8775 63.6572 44.256 62.6673 44.2678C62.4417 44.2615 62.217 44.2375 61.9953 44.1958C61.3733 44.0824 60.7313 44.195 60.1851 44.5134C59.6389 44.8317 59.2245 45.3348 59.0166 45.9318C56.5739 52.8571 48.3526 60.2678 40.0006 60.2678C32.2673 60.2678 25.0673 54.1798 21.9579 48.1638C21.6326 47.5358 21.0711 47.0627 20.397 46.8487C19.7229 46.6346 18.9913 46.6971 18.3633 47.0225C17.7352 47.3478 17.2622 47.9093 17.0481 48.5834C16.8341 49.2576 16.8966 49.9891 17.2219 50.6171C19.9857 55.774 24.1954 60.0115 29.3339 62.8091V70.9345C29.3339 71.6417 29.6149 72.32 30.115 72.8201C30.6151 73.3202 31.2934 73.6011 32.0006 73.6011C32.7078 73.6011 33.3861 73.3202 33.8862 72.8201C34.3863 72.32 34.6673 71.6417 34.6673 70.9345V64.9025C38.1609 65.8411 41.8403 65.8411 45.3339 64.9025V70.9345C45.3339 71.6417 45.6149 72.32 46.115 72.8201C46.6151 73.3202 47.2934 73.6011 48.0006 73.6011C48.7079 73.6011 49.3861 73.3202 49.8862 72.8201C50.3863 72.32 50.6673 71.6417 50.6673 70.9345V62.8118C56.1716 59.8527 60.5912 55.2183 63.2859 49.5798C65.3814 49.4368 67.3674 48.5912 68.9228 47.1797C70.4782 45.7683 71.512 43.8734 71.8571 41.8016C72.2022 39.7298 71.8384 37.6022 70.8245 35.7627C69.8106 33.9233 68.2059 32.4796 66.2699 31.6651Z" fill="#FDFDFD"/>
</g>
</g>
</g>
</g>
<defs>
<clipPath id="clip0_795_12136">
<rect width="80" height="80" fill="white"/>
</clipPath>
</defs>
</svg>
