<svg width="32" height="33" viewBox="0 0 32 33" fill="none" xmlns="http://www.w3.org/2000/svg">
<g id="fi-rr-man-head" clip-path="url(#clip0_39_123)">
<path id="Vector" d="M19.3334 18.1339C18.9378 18.1339 18.5512 18.0166 18.2223 17.7968C17.8934 17.5771 17.637 17.2647 17.4856 16.8992C17.3343 16.5338 17.2947 16.1317 17.3718 15.7437C17.449 15.3557 17.6395 14.9994 17.9192 14.7197C18.1989 14.44 18.5553 14.2495 18.9432 14.1723C19.3312 14.0951 19.7333 14.1347 20.0988 14.2861C20.4642 14.4375 20.7766 14.6938 20.9963 15.0227C21.2161 15.3516 21.3334 15.7383 21.3334 16.1339C21.3334 16.6643 21.1227 17.173 20.7476 17.5481C20.3725 17.9232 19.8638 18.1339 19.3334 18.1339ZM29.1347 11.8325C28.5994 8.73934 26.9873 5.93518 24.5835 3.9162C22.1797 1.89723 19.1392 0.793585 16.0001 0.800539C6.80006 0.800539 4.16539 7.03254 2.42539 11.1565C2.07257 12.3234 1.47277 13.4007 0.666724 14.3152C0.425936 14.4556 0.235217 14.668 0.121381 14.9225C0.00754501 15.1769 -0.0236833 15.4606 0.0320867 15.7337C0.0878568 16.0068 0.227821 16.2556 0.432299 16.445C0.636778 16.6345 0.895489 16.7551 1.17206 16.7899C4.46779 17.067 7.78249 16.5646 10.8481 15.3232C10.6789 15.698 10.6294 16.1159 10.7063 16.5199C10.7833 16.9238 10.9828 17.2943 11.2779 17.5807C11.5729 17.8672 11.9491 18.0557 12.3551 18.1207C12.7612 18.1857 13.1774 18.1239 13.5471 17.9438C13.9168 17.7636 14.2219 17.4739 14.421 17.1141C14.6201 16.7543 14.7035 16.3419 14.6597 15.933C14.6159 15.5241 14.4472 15.1386 14.1765 14.8291C13.9057 14.5196 13.5462 14.301 13.1467 14.2032C15.7662 12.7358 18.0241 10.7007 19.7547 8.24721C19.8646 8.10535 19.9446 7.9428 19.9901 7.76927C20.0357 7.59574 20.0457 7.41481 20.0196 7.23731C19.9936 7.05982 19.932 6.8894 19.8385 6.73627C19.7451 6.58315 19.6216 6.45046 19.4757 6.34615C19.3297 6.24184 19.1642 6.16806 18.9891 6.12923C18.8139 6.09039 18.6327 6.0873 18.4564 6.12014C18.28 6.15298 18.1121 6.22108 17.9627 6.32035C17.8132 6.41962 17.6854 6.54802 17.5867 6.69787C16.0318 8.887 14.0021 10.6962 11.6493 11.9901C9.29645 13.2841 6.68151 14.0292 4.00006 14.1699C4.30272 13.5659 4.58406 12.8952 4.88272 12.1925C6.52272 8.30454 8.56406 3.46721 16.0001 3.46721C18.6345 3.46091 21.1776 4.43241 23.1368 6.19359C25.096 7.95477 26.332 10.3803 26.6054 13.0005C26.6359 13.287 26.7584 13.5559 26.9546 13.767C27.1507 13.978 27.4099 14.1198 27.6934 14.1712C28.1792 14.2662 28.6125 14.538 28.9095 14.934C29.2065 15.33 29.3461 15.822 29.3013 16.315C29.2565 16.8079 29.0305 17.2668 28.667 17.6027C28.3035 17.9387 27.8283 18.128 27.3334 18.1339C27.2206 18.1307 27.1083 18.1187 26.9974 18.0979C26.6864 18.0412 26.3654 18.0975 26.0923 18.2567C25.8192 18.4158 25.612 18.6674 25.5081 18.9659C24.2867 22.4285 20.1761 26.1339 16.0001 26.1339C12.1334 26.1339 8.53339 23.0899 6.97872 20.0819C6.81606 19.7679 6.53531 19.5313 6.19825 19.4243C5.86118 19.3173 5.49541 19.3485 5.18139 19.5112C4.86737 19.6739 4.63084 19.9546 4.52382 20.2917C4.4168 20.6287 4.44806 20.9945 4.61072 21.3085C5.99261 23.887 8.09744 26.0057 10.6667 27.4045V31.4672C10.6667 31.8208 10.8072 32.16 11.0573 32.41C11.3073 32.6601 11.6464 32.8005 12.0001 32.8005C12.3537 32.8005 12.6928 32.6601 12.9429 32.41C13.1929 32.16 13.3334 31.8208 13.3334 31.4672V28.4512C15.0802 28.9205 16.9199 28.9205 18.6667 28.4512V31.4672C18.6667 31.8208 18.8072 32.16 19.0573 32.41C19.3073 32.6601 19.6464 32.8005 20.0001 32.8005C20.3537 32.8005 20.6928 32.6601 20.9429 32.41C21.1929 32.16 21.3334 31.8208 21.3334 31.4672V27.4059C24.0856 25.9263 26.2953 23.6091 27.6427 20.7899C28.6905 20.7184 29.6835 20.2956 30.4611 19.5898C31.2388 18.8841 31.7557 17.9367 31.9283 16.9008C32.1008 15.8649 31.9189 14.8011 31.412 13.8813C30.9051 12.9616 30.1027 12.2398 29.1347 11.8325Z" fill="#FDFDFD"/>
</g>
<defs>
<clipPath id="clip0_39_123">
<rect width="32" height="32" fill="white" transform="translate(0 0.799988)"/>
</clipPath>
</defs>
</svg>
