<svg width="18" height="18" viewBox="0 0 18 18" fill="none" xmlns="http://www.w3.org/2000/svg">
<g id="ic_gajang">
<circle id="bg_18" cx="9" cy="9" r="9" fill="#FF95B9"/>
<path id="ic_gajang_2" d="M14.383 5.09855C14.2003 5.02083 13.9991 5.0004 13.805 5.03987C13.6108 5.07933 13.4326 5.1769 13.293 5.32014L12 6.6405L9.707 4.29898C9.51947 4.10754 9.26516 4 9 4C8.73484 4 8.48053 4.10754 8.293 4.29898L6 6.6405L4.707 5.32014C4.56715 5.17737 4.38898 5.08015 4.19503 5.04077C4.00108 5.00139 3.80005 5.02161 3.61735 5.09888C3.43465 5.17615 3.27848 5.307 3.1686 5.47489C3.05871 5.64278 3.00004 5.84017 3 6.0421V11.4471C3.00079 12.1239 3.26444 12.7728 3.73311 13.2514C4.20178 13.73 4.8372 13.9992 5.5 14H12.5C13.1628 13.9992 13.7982 13.73 14.2669 13.2514C14.7356 12.7728 14.9992 12.1239 15 11.4471V6.0421C15 5.84015 14.9415 5.64272 14.8316 5.47477C14.7218 5.30682 14.5657 5.1759 14.383 5.09855Z" fill="#FDFDFD"/>
</g>
</svg>
