<svg width="current" height="current" viewBox="0 0 24 24" fill="none" xmlns="http://www.w3.org/2000/svg">
<g id="name=heart, size=medium_24">
<circle id="Ellipse 26" cx="12" cy="12" r="12" fill="#FF95B9"/>
<path id="ic_heart_pressed" d="M16.1233 5C15.2791 5.01328 14.4534 5.25169 13.7294 5.69114C13.0054 6.13059 12.4089 6.75553 12 7.50284C11.5911 6.75553 10.9946 6.13059 10.2706 5.69114C9.54665 5.25169 8.72086 5.01328 7.87666 5C6.53091 5.05915 5.263 5.65472 4.34992 6.6566C3.43685 7.65848 2.95284 8.98522 3.00363 10.347C3.00363 13.7956 6.59168 17.562 9.60097 20.1156C10.2729 20.6868 11.1224 21 12 21C12.8776 21 13.7271 20.6868 14.399 20.1156C17.4083 17.562 20.9964 13.7956 20.9964 10.347C21.0472 8.98522 20.5632 7.65848 19.6501 6.6566C18.737 5.65472 17.4691 5.05915 16.1233 5Z" fill="#FDFDFD"/>
</g>
</svg>
