<svg width="current" height="current" viewBox="0 0 10 10" fill="none" xmlns="http://www.w3.org/2000/svg">
<path id="Vector" d="M5 10C4.55797 10 4.13405 9.8244 3.82149 9.51184C3.50893 9.19928 3.33333 8.77536 3.33333 8.33333V6.66667H1.66667C1.22464 6.66667 0.800716 6.49107 0.488155 6.17851C0.175595 5.86595 0 5.44203 0 5C0 4.55797 0.175595 4.13405 0.488155 3.82149C0.800716 3.50893 1.22464 3.33333 1.66667 3.33333H3.33333V1.66667C3.33333 1.22464 3.50893 0.800716 3.82149 0.488155C4.13405 0.175595 4.55797 0 5 0C5.44203 0 5.86595 0.175595 6.17851 0.488155C6.49107 0.800716 6.66667 1.22464 6.66667 1.66667V3.33333H8.33333C8.77536 3.33333 9.19928 3.50893 9.51184 3.82149C9.8244 4.13405 10 4.55797 10 5C10 5.44203 9.8244 5.86595 9.51184 6.17851C9.19928 6.49107 8.77536 6.66667 8.33333 6.66667H6.66667V8.33333C6.66667 8.77536 6.49107 9.19928 6.17851 9.51184C5.86595 9.8244 5.44203 10 5 10Z" fill="current"/>
</svg>
