<svg width="current" height="current" viewBox="0 0 24 24" fill="none" xmlns="http://www.w3.org/2000/svg">
<g id="name=surprise, size=medium_24">
<circle id="Ellipse 33" cx="12" cy="12" r="12" fill="#FDFDFD"/>
<path id="Vector" d="M12 24C9.62662 24 7.30655 23.2962 5.33316 21.9776C3.35977 20.6591 1.8217 18.7849 0.913445 16.5922C0.00519371 14.3995 -0.232446 11.9867 0.230576 9.65892C0.693599 7.33114 1.83649 5.19295 3.51472 3.51472C5.19295 1.83649 7.33114 0.693599 9.65892 0.230576C11.9867 -0.232446 14.3995 0.00519371 16.5922 0.913445C18.7849 1.8217 20.6591 3.35977 21.9776 5.33316C23.2962 7.30655 24 9.62662 24 12C23.9966 15.1815 22.7312 18.2318 20.4815 20.4815C18.2318 22.7312 15.1815 23.9966 12 24ZM12 2C10.0222 2 8.08879 2.58649 6.4443 3.6853C4.79981 4.78412 3.51808 6.3459 2.7612 8.17317C2.00433 10.0004 1.80629 12.0111 2.19215 13.9509C2.578 15.8907 3.53041 17.6725 4.92893 19.0711C6.32746 20.4696 8.10929 21.422 10.0491 21.8079C11.9889 22.1937 13.9996 21.9957 15.8268 21.2388C17.6541 20.4819 19.2159 19.2002 20.3147 17.5557C21.4135 15.9112 22 13.9778 22 12C21.9971 9.34873 20.9426 6.80688 19.0679 4.93215C17.1931 3.05741 14.6513 2.00291 12 2ZM6 10C6 11 6.895 11 8 11C9.105 11 10 11 10 10C10 9.46957 9.78929 8.96086 9.41421 8.58579C9.03914 8.21071 8.53043 8 8 8C7.46957 8 6.96086 8.21071 6.58579 8.58579C6.21071 8.96086 6 9.46957 6 10ZM14 10C14 11 14.895 11 16 11C17.105 11 18 11 18 10C18 9.46957 17.7893 8.96086 17.4142 8.58579C17.0391 8.21071 16.5304 8 16 8C15.4696 8 14.9609 8.21071 14.5858 8.58579C14.2107 8.96086 14 9.46957 14 10Z" fill="#666666"/>
<path id="Ellipse 28" d="M17 17.5C17 20.5376 14.7614 23 12 23C9.23858 23 7 20.5376 7 17.5C7 14.4624 9.23858 12 12 12C14.7614 12 17 14.4624 17 17.5Z" fill="#FF95B9"/>
</g>
</svg>
