<svg width="current" height="current" viewBox="0 0 30 30" fill="none" xmlns="http://www.w3.org/2000/svg">
<g id="name=thumb, size=large_30">
<circle id="Ellipse 27" cx="15" cy="15" r="15" fill="#1EA49A"/>
<path id="Vector" d="M25.0997 10.9889C24.6601 10.4822 24.1168 10.076 23.5065 9.79762C22.8962 9.51926 22.2333 9.37527 21.5625 9.37541H17.8228L18.1378 7.46198C18.2493 6.78816 18.1148 6.09673 17.7589 5.5138C17.4031 4.93086 16.8495 4.49527 16.1992 4.28647C15.549 4.07767 14.8453 4.10957 14.2166 4.37636C13.5879 4.64315 13.076 5.12705 12.7744 5.73979L11.25 8.82885V23.4379H20.9062C22.0345 23.4333 23.1236 23.0238 23.9754 22.284C24.8273 21.5442 25.3852 20.5231 25.5478 19.4067L26.2087 14.7192C26.3022 14.0542 26.2515 13.377 26.0602 12.7333C25.8688 12.0897 25.5412 11.4947 25.0997 10.9889Z" fill="#FDFDFD"/>
<path id="Vector_2" d="M3.75 14.0625V18.75C3.75149 19.9927 4.24583 21.1842 5.12458 22.0629C6.00334 22.9417 7.19475 23.436 8.4375 23.4375H9.375V9.375H8.4375C7.19475 9.37649 6.00334 9.87083 5.12458 10.7496C4.24583 11.6283 3.75149 12.8198 3.75 14.0625H3.75Z" fill="#FDFDFD"/>
</g>
</svg>
